<svg width="1727" height="238" viewBox="0 0 1727 238" fill="none" xmlns="http://www.w3.org/2000/svg">
<rect x="-1" y="46" width="718" height="192" fill="#BCD232"/>
<rect x="717" y="46" width="1010" height="192" fill="black"/>
<rect x="-1" width="718" height="46" fill="black"/>
<path d="M47.7 29V18.68H49.3V20.58H49.4C49.5867 20.0867 49.92 19.6467 50.4 19.26C50.88 18.8733 51.54 18.68 52.38 18.68H53V20.28H52.06C51.1933 20.28 50.5133 20.4467 50.02 20.78C49.54 21.1 49.3 21.5067 49.3 22V29H47.7ZM61.4038 27.32H61.3238C61.2171 27.56 61.0838 27.8 60.9238 28.04C60.7771 28.2667 60.5904 28.4733 60.3638 28.66C60.1371 28.8333 59.8638 28.9733 59.5438 29.08C59.2238 29.1867 58.8504 29.24 58.4238 29.24C57.3571 29.24 56.5104 28.9 55.8838 28.22C55.2571 27.5267 54.9438 26.5533 54.9438 25.3V18.68H56.5438V25.02C56.5438 26.8733 57.3304 27.8 58.9038 27.8C59.2238 27.8 59.5304 27.76 59.8238 27.68C60.1304 27.6 60.3971 27.48 60.6238 27.32C60.8638 27.16 61.0504 26.96 61.1838 26.72C61.3304 26.4667 61.4038 26.1667 61.4038 25.82V18.68H63.0038V29H61.4038V27.32ZM68.6909 29C68.1309 29 67.7043 28.8467 67.4109 28.54C67.1309 28.22 66.9909 27.8067 66.9909 27.3V20.08H65.2909V18.68H66.2509C66.5976 18.68 66.8309 18.6133 66.9509 18.48C67.0843 18.3333 67.1509 18.0867 67.1509 17.74V15.82H68.5909V18.68H70.8509V20.08H68.5909V27.6H70.6909V29H68.6909ZM80.9227 29C80.3227 29 79.8893 28.84 79.6227 28.52C79.3693 28.2 79.2093 27.8 79.1427 27.32H79.0427C78.816 27.96 78.4427 28.44 77.9227 28.76C77.4027 29.08 76.7827 29.24 76.0627 29.24C74.9693 29.24 74.116 28.96 73.5027 28.4C72.9027 27.84 72.6027 27.08 72.6027 26.12C72.6027 25.1467 72.956 24.4 73.6627 23.88C74.3827 23.36 75.496 23.1 77.0027 23.1H79.0427V22.08C79.0427 21.3467 78.8427 20.7867 78.4427 20.4C78.0427 20.0133 77.4293 19.82 76.6027 19.82C75.976 19.82 75.4493 19.96 75.0227 20.24C74.6093 20.52 74.2627 20.8933 73.9827 21.36L73.0227 20.46C73.3027 19.9 73.7493 19.4267 74.3627 19.04C74.976 18.64 75.7493 18.44 76.6827 18.44C77.936 18.44 78.9093 18.7467 79.6027 19.36C80.296 19.9733 80.6427 20.8267 80.6427 21.92V27.6H81.8227V29H80.9227ZM76.3227 27.88C76.7227 27.88 77.0893 27.8333 77.4227 27.74C77.756 27.6467 78.0427 27.5133 78.2827 27.34C78.5227 27.1667 78.7093 26.9667 78.8427 26.74C78.976 26.5133 79.0427 26.2667 79.0427 26V24.3H76.9227C76.0027 24.3 75.3293 24.4333 74.9027 24.7C74.4893 24.9667 74.2827 25.3533 74.2827 25.86V26.28C74.2827 26.7867 74.4627 27.18 74.8227 27.46C75.196 27.74 75.696 27.88 76.3227 27.88ZM87.2063 29.24C86.2463 29.24 85.4396 29.06 84.7863 28.7C84.1463 28.3267 83.5929 27.8333 83.1263 27.22L84.2663 26.3C84.6663 26.8067 85.1129 27.2 85.6063 27.48C86.0996 27.7467 86.6729 27.88 87.3263 27.88C88.0063 27.88 88.5329 27.7333 88.9063 27.44C89.2929 27.1467 89.4863 26.7333 89.4863 26.2C89.4863 25.8 89.3529 25.46 89.0863 25.18C88.8329 24.8867 88.3663 24.6867 87.6862 24.58L86.8663 24.46C86.3863 24.3933 85.9463 24.2933 85.5463 24.16C85.1463 24.0133 84.7929 23.8267 84.4863 23.6C84.1929 23.36 83.9596 23.0667 83.7863 22.72C83.6263 22.3733 83.5463 21.96 83.5463 21.48C83.5463 20.9733 83.6396 20.5333 83.8263 20.16C84.0129 19.7733 84.2663 19.4533 84.5863 19.2C84.9196 18.9467 85.3129 18.76 85.7663 18.64C86.2196 18.5067 86.7063 18.44 87.2263 18.44C88.0663 18.44 88.7663 18.5867 89.3263 18.88C89.8996 19.1733 90.3996 19.58 90.8263 20.1L89.7663 21.06C89.5396 20.74 89.2063 20.4533 88.7663 20.2C88.3263 19.9333 87.7729 19.8 87.1063 19.8C86.4396 19.8 85.9329 19.9467 85.5863 20.24C85.2529 20.52 85.0863 20.9067 85.0863 21.4C85.0863 21.9067 85.2529 22.2733 85.5863 22.5C85.9329 22.7267 86.4263 22.8933 87.0663 23L87.8663 23.12C89.0129 23.2933 89.8263 23.6267 90.3063 24.12C90.7863 24.6 91.0263 25.2333 91.0263 26.02C91.0263 27.02 90.6863 27.8067 90.0063 28.38C89.3263 28.9533 88.3929 29.24 87.2063 29.24Z" fill="white"/>
<path d="M182.827 181.543C178.165 170.277 178.777 146.849 189.115 135.839C177.304 145.251 151.734 143.845 140.721 137.237" stroke="black" stroke-width="3.71393" stroke-linecap="square"/>
<path d="M46 102C51.4305 113.766 69.3509 132.592 97.5893 113.766" stroke="black" stroke-width="3.71393" stroke-linecap="square"/>
<path d="M97.5979 113.77C72.8592 130.363 40.2902 163.004 65.0152 183.46C80.366 196.161 135.611 185.995 182.675 141.827" stroke="black" stroke-width="3.71393" stroke-linecap="square"/>
</svg>
