<svg width="1728" height="280" viewBox="0 0 1728 280" fill="none" xmlns="http://www.w3.org/2000/svg">
<rect x="704" y="124" width="58" height="70" fill="#FAFAFA"/>
<rect x="1036" y="210" width="412" height="70" fill="#BCD232"/>
<rect x="1447.5" y="140" width="287.498" height="70" fill="#BCD232"/>
<rect width="390" height="70" transform="matrix(-1 0 0 1 704 210)" fill="#BCD232"/>
<rect width="314" height="70" transform="matrix(-1 0 0 1 314 140)" fill="#BCD232"/>
<rect x="704.211" y="140" width="331.575" height="70" fill="#BCD232"/>
<path d="M749.242 164.6V194H745.042V180.8H727.642V194H723.442V164.6H727.642V177.5H745.042V164.6H749.242ZM779.861 194V187.1C778.981 188.18 777.981 189.26 776.861 190.34C775.781 191.38 774.181 192.46 772.061 193.58C769.941 194.66 767.841 195.2 765.761 195.2C763.001 195.2 760.901 194.56 759.461 193.28C758.061 191.96 757.361 190.2 757.361 188C757.361 186.52 757.721 185.18 758.441 183.98C759.161 182.74 760.021 181.74 761.021 180.98C762.061 180.18 763.361 179.46 764.921 178.82C766.521 178.18 767.941 177.7 769.181 177.38C770.461 177.02 771.941 176.72 773.621 176.48C775.341 176.2 776.561 176.04 777.281 176C778.001 175.92 778.861 175.84 779.861 175.76C779.821 173.08 779.101 170.96 777.701 169.4C776.341 167.8 773.861 167 770.261 167C767.101 167 764.701 167.76 763.061 169.28C761.461 170.8 760.661 172.74 760.661 175.1H756.461C756.461 171.5 757.781 168.66 760.421 166.58C763.061 164.46 766.341 163.4 770.261 163.4C772.661 163.4 774.701 163.68 776.381 164.24C778.101 164.8 779.441 165.54 780.401 166.46C781.401 167.34 782.181 168.52 782.741 170C783.301 171.44 783.661 172.86 783.821 174.26C783.981 175.66 784.061 177.34 784.061 179.3V187.7C784.061 189.54 784.261 190.7 784.661 191.18C785.101 191.66 785.901 191.9 787.061 191.9H787.961V194H779.861ZM779.861 183.8V179.06C767.661 180.22 761.561 183.1 761.561 187.7C761.561 190.3 763.361 191.6 766.961 191.6C769.321 191.6 771.701 190.74 774.101 189.02C776.501 187.3 778.421 185.56 779.861 183.8ZM798.812 170.66C796.772 173.1 795.752 175.98 795.752 179.3C795.752 182.62 796.772 185.5 798.812 187.94C800.852 190.38 803.912 191.6 807.992 191.6C811.032 191.6 813.652 190.82 815.852 189.26C818.052 187.66 819.152 185.74 819.152 183.5H823.352C823.352 187.18 821.792 190.06 818.672 192.14C815.592 194.18 812.032 195.2 807.992 195.2C803.032 195.2 799.052 193.68 796.052 190.64C793.052 187.6 791.552 183.82 791.552 179.3C791.552 174.78 793.052 171 796.052 167.96C799.052 164.92 803.032 163.4 807.992 163.4C812.032 163.4 815.592 164.44 818.672 166.52C821.792 168.56 823.352 171.42 823.352 175.1H819.152C819.152 172.86 818.052 170.96 815.852 169.4C813.652 167.8 811.032 167 807.992 167C803.912 167 800.852 168.22 798.812 170.66ZM870.156 167.9H860.856V171.8C860.856 175.68 860.576 179.06 860.016 181.94C859.496 184.82 858.836 187.04 858.036 188.6C857.276 190.12 856.316 191.34 855.156 192.26C853.996 193.14 852.936 193.7 851.976 193.94C851.056 194.18 850.036 194.3 848.916 194.3C848.556 194.3 848.216 194.28 847.896 194.24C847.576 194.2 847.356 194.16 847.236 194.12L847.056 194V190.82C847.456 190.94 847.856 191 848.256 191C854.256 191 857.256 184.2 857.256 170.6V164.6H874.356V194H870.156V167.9ZM886.959 164.6V177.5H892.419C892.779 173.18 894.279 169.76 896.919 167.24C899.559 164.68 902.839 163.4 906.759 163.4C910.959 163.4 914.399 164.84 917.079 167.72C919.799 170.56 921.159 174.42 921.159 179.3C921.159 184.18 919.799 188.06 917.079 190.94C914.399 193.78 910.959 195.2 906.759 195.2C902.799 195.2 899.479 193.92 896.799 191.36C894.159 188.76 892.699 185.24 892.419 180.8H886.959V194H882.759V164.6H886.959ZM899.259 170.48C897.459 172.76 896.559 175.7 896.559 179.3C896.559 182.9 897.459 185.86 899.259 188.18C901.099 190.46 903.599 191.6 906.759 191.6C909.919 191.6 912.399 190.46 914.199 188.18C916.039 185.86 916.959 182.9 916.959 179.3C916.959 175.7 916.039 172.76 914.199 170.48C912.399 168.16 909.919 167 906.759 167C903.599 167 901.099 168.16 899.259 170.48ZM956.852 180.5C956.852 184.86 955.452 188.4 952.652 191.12C949.852 193.84 946.252 195.2 941.852 195.2C937.252 195.2 933.592 193.7 930.872 190.7C928.192 187.7 926.852 183.1 926.852 176.9C926.852 173.14 927.172 169.88 927.812 167.12C928.492 164.36 929.332 162.16 930.332 160.52C931.332 158.88 932.652 157.54 934.292 156.5C935.932 155.42 937.472 154.68 938.912 154.28C940.392 153.84 942.172 153.48 944.252 153.2C948.012 152.68 950.112 152.34 950.552 152.18C951.512 151.7 952.012 150.84 952.052 149.6V149H955.352V150.2C955.352 151.4 955.212 152.4 954.932 153.2C954.652 154 954.252 154.64 953.732 155.12C953.252 155.6 952.552 155.98 951.632 156.26C950.712 156.54 949.732 156.76 948.692 156.92C947.652 157.04 946.332 157.18 944.732 157.34C944.372 157.38 944.112 157.4 943.952 157.4C939.432 157.84 936.132 159.32 934.052 161.84C931.972 164.36 930.772 168.08 930.452 173H931.052C931.132 172.8 931.232 172.54 931.352 172.22C931.512 171.9 931.892 171.34 932.492 170.54C933.092 169.7 933.772 168.96 934.532 168.32C935.332 167.68 936.432 167.1 937.832 166.58C939.232 166.06 940.772 165.8 942.452 165.8C946.572 165.8 949.992 167.18 952.712 169.94C955.472 172.66 956.852 176.18 956.852 180.5ZM933.812 172.64C931.972 174.76 931.052 177.38 931.052 180.5C931.052 183.62 931.972 186.26 933.812 188.42C935.692 190.54 938.372 191.6 941.852 191.6C945.332 191.6 947.992 190.54 949.832 188.42C951.712 186.26 952.652 183.62 952.652 180.5C952.652 177.38 951.712 174.76 949.832 172.64C947.992 170.48 945.332 169.4 941.852 169.4C938.372 169.4 935.692 170.48 933.812 172.64ZM968.835 186.5V194H961.335V191.9H961.935C963.095 191.9 963.875 191.66 964.275 191.18C964.715 190.7 964.935 189.54 964.935 187.7V186.08C964.935 184.6 965.255 183.4 965.895 182.48C966.575 181.56 967.255 181 967.935 180.8L968.895 180.5V179.9C968.735 179.86 968.535 179.82 968.295 179.78C968.055 179.7 967.615 179.5 966.975 179.18C966.375 178.86 965.835 178.48 965.355 178.04C964.875 177.6 964.435 176.94 964.035 176.06C963.635 175.18 963.435 174.2 963.435 173.12C963.435 170.8 964.335 168.82 966.135 167.18C967.975 165.5 971.075 164.64 975.435 164.6H988.635V194H984.435V181.7H974.835C972.555 181.7 970.975 182.1 970.095 182.9C969.255 183.7 968.835 184.9 968.835 186.5ZM984.435 178.4V167.9H975.555C970.075 167.9 967.335 169.72 967.335 173.36C967.335 174.92 967.955 176.16 969.195 177.08C970.475 177.96 972.395 178.4 974.955 178.4H984.435ZM994.016 167.9V164.6H1020.42V167.9H1009.32V194H1005.12V167.9H994.016Z" fill="black"/>
<rect x="244" y="70" width="70" height="70" fill="#BCD232"/>
<rect x="1448" y="80" width="70" height="70" fill="#BCD232"/>
<rect x="1035" y="70" width="70" height="70" fill="#BCD232"/>
<rect x="634" y="70" width="70" height="70" fill="#BCD232"/>
<rect x="464" y="140" width="70" height="70" fill="#BCD232"/>
<rect width="70" height="70" transform="matrix(-1 0 0 1 1238 140)" fill="#BCD232"/>
<rect x="174" width="70" height="70" fill="#BCD232"/>
<rect x="-3" y="70" width="70" height="70" fill="#BCD232"/>
<rect x="1516" y="10" width="70" height="70" fill="#BCD232"/>
<rect x="1660" y="70" width="70" height="70" fill="#BCD232"/>
<rect x="174" y="210" width="70" height="70" fill="#BCD232"/>
<rect x="1660" y="210" width="70" height="70" fill="#BCD232"/>
<rect x="1378" y="141" width="70" height="70" fill="#BCD232"/>
<rect x="394" y="70" width="70" height="70" fill="#BCD232"/>
<rect width="70" height="70" transform="matrix(-1 0 0 1 1308 70)" fill="#BCD232"/>
<rect y="210" width="70" height="70" fill="#BCD232"/>
</svg>
