<svg width="1727" height="238" viewBox="0 0 1727 238" fill="none" xmlns="http://www.w3.org/2000/svg">
<rect x="-1" y="46" width="718" height="192" fill="#BCD232"/>
<rect x="717" y="46" width="1010" height="192" fill="black"/>
<path d="M1529.2 162C1528.6 162 1528.17 161.84 1527.9 161.52C1527.65 161.2 1527.49 160.8 1527.42 160.32H1527.32C1527.09 160.96 1526.72 161.44 1526.2 161.76C1525.68 162.08 1525.06 162.24 1524.34 162.24C1523.25 162.24 1522.39 161.96 1521.78 161.4C1521.18 160.84 1520.88 160.08 1520.88 159.12C1520.88 158.147 1521.23 157.4 1521.94 156.88C1522.66 156.36 1523.77 156.1 1525.28 156.1H1527.32V155.08C1527.32 154.347 1527.12 153.787 1526.72 153.4C1526.32 153.013 1525.71 152.82 1524.88 152.82C1524.25 152.82 1523.73 152.96 1523.3 153.24C1522.89 153.52 1522.54 153.893 1522.26 154.36L1521.3 153.46C1521.58 152.9 1522.03 152.427 1522.64 152.04C1523.25 151.64 1524.03 151.44 1524.96 151.44C1526.21 151.44 1527.19 151.747 1527.88 152.36C1528.57 152.973 1528.92 153.827 1528.92 154.92V160.6H1530.1V162H1529.2ZM1524.6 160.88C1525 160.88 1525.37 160.833 1525.7 160.74C1526.03 160.647 1526.32 160.513 1526.56 160.34C1526.8 160.167 1526.99 159.967 1527.12 159.74C1527.25 159.513 1527.32 159.267 1527.32 159V157.3H1525.2C1524.28 157.3 1523.61 157.433 1523.18 157.7C1522.77 157.967 1522.56 158.353 1522.56 158.86V159.28C1522.56 159.787 1522.74 160.18 1523.1 160.46C1523.47 160.74 1523.97 160.88 1524.6 160.88ZM1538.98 160.32H1538.9C1538.28 161.6 1537.27 162.24 1535.88 162.24C1535.24 162.24 1534.66 162.113 1534.14 161.86C1533.62 161.607 1533.18 161.247 1532.8 160.78C1532.44 160.313 1532.16 159.747 1531.96 159.08C1531.78 158.413 1531.68 157.667 1531.68 156.84C1531.68 156.013 1531.78 155.267 1531.96 154.6C1532.16 153.933 1532.44 153.367 1532.8 152.9C1533.18 152.433 1533.62 152.073 1534.14 151.82C1534.66 151.567 1535.24 151.44 1535.88 151.44C1536.6 151.44 1537.22 151.6 1537.72 151.92C1538.24 152.227 1538.64 152.707 1538.9 153.36H1538.98V147.2H1540.58V162H1538.98V160.32ZM1536.32 160.8C1536.68 160.8 1537.02 160.753 1537.34 160.66C1537.68 160.567 1537.96 160.433 1538.2 160.26C1538.44 160.073 1538.63 159.853 1538.76 159.6C1538.91 159.333 1538.98 159.033 1538.98 158.7V154.86C1538.98 154.58 1538.91 154.32 1538.76 154.08C1538.63 153.827 1538.44 153.613 1538.2 153.44C1537.96 153.267 1537.68 153.133 1537.34 153.04C1537.02 152.933 1536.68 152.88 1536.32 152.88C1535.42 152.88 1534.7 153.167 1534.18 153.74C1533.66 154.3 1533.4 155.04 1533.4 155.96V157.72C1533.4 158.64 1533.66 159.387 1534.18 159.96C1534.7 160.52 1535.42 160.8 1536.32 160.8ZM1547.83 162.24C1547.11 162.24 1546.46 162.113 1545.89 161.86C1545.31 161.607 1544.83 161.247 1544.43 160.78C1544.04 160.313 1543.74 159.747 1543.53 159.08C1543.33 158.413 1543.23 157.667 1543.23 156.84C1543.23 156.013 1543.33 155.267 1543.53 154.6C1543.74 153.933 1544.04 153.367 1544.43 152.9C1544.83 152.433 1545.31 152.073 1545.89 151.82C1546.46 151.567 1547.11 151.44 1547.83 151.44C1548.85 151.44 1549.67 151.667 1550.29 152.12C1550.91 152.56 1551.38 153.14 1551.69 153.86L1550.35 154.54C1550.16 154.007 1549.85 153.593 1549.43 153.3C1549 153.007 1548.47 152.86 1547.83 152.86C1547.35 152.86 1546.93 152.94 1546.57 153.1C1546.21 153.247 1545.91 153.46 1545.67 153.74C1545.43 154.007 1545.25 154.333 1545.13 154.72C1545.01 155.093 1544.95 155.507 1544.95 155.96V157.72C1544.95 158.627 1545.19 159.373 1545.67 159.96C1546.16 160.533 1546.88 160.82 1547.83 160.82C1549.12 160.82 1550.05 160.22 1550.63 159.02L1551.79 159.8C1551.45 160.547 1550.95 161.14 1550.29 161.58C1549.63 162.02 1548.81 162.24 1547.83 162.24ZM1562.61 162.24C1561.89 162.24 1561.24 162.113 1560.67 161.86C1560.1 161.607 1559.61 161.247 1559.21 160.78C1558.82 160.313 1558.52 159.747 1558.31 159.08C1558.11 158.413 1558.01 157.667 1558.01 156.84C1558.01 156.013 1558.11 155.267 1558.31 154.6C1558.52 153.933 1558.82 153.367 1559.21 152.9C1559.61 152.433 1560.1 152.073 1560.67 151.82C1561.24 151.567 1561.89 151.44 1562.61 151.44C1563.64 151.44 1564.46 151.667 1565.07 152.12C1565.7 152.56 1566.16 153.14 1566.47 153.86L1565.13 154.54C1564.94 154.007 1564.64 153.593 1564.21 153.3C1563.78 153.007 1563.25 152.86 1562.61 152.86C1562.13 152.86 1561.71 152.94 1561.35 153.1C1560.99 153.247 1560.69 153.46 1560.45 153.74C1560.21 154.007 1560.03 154.333 1559.91 154.72C1559.79 155.093 1559.73 155.507 1559.73 155.96V157.72C1559.73 158.627 1559.97 159.373 1560.45 159.96C1560.94 160.533 1561.66 160.82 1562.61 160.82C1563.9 160.82 1564.84 160.22 1565.41 159.02L1566.57 159.8C1566.24 160.547 1565.74 161.14 1565.07 161.58C1564.42 162.02 1563.6 162.24 1562.61 162.24ZM1572.61 162.24C1571.92 162.24 1571.29 162.113 1570.71 161.86C1570.14 161.607 1569.65 161.247 1569.23 160.78C1568.83 160.3 1568.52 159.733 1568.29 159.08C1568.07 158.413 1567.95 157.667 1567.95 156.84C1567.95 156.027 1568.07 155.287 1568.29 154.62C1568.52 153.953 1568.83 153.387 1569.23 152.92C1569.65 152.44 1570.14 152.073 1570.71 151.82C1571.29 151.567 1571.92 151.44 1572.61 151.44C1573.31 151.44 1573.93 151.567 1574.49 151.82C1575.07 152.073 1575.56 152.44 1575.97 152.92C1576.39 153.387 1576.71 153.953 1576.93 154.62C1577.16 155.287 1577.27 156.027 1577.27 156.84C1577.27 157.667 1577.16 158.413 1576.93 159.08C1576.71 159.733 1576.39 160.3 1575.97 160.78C1575.56 161.247 1575.07 161.607 1574.49 161.86C1573.93 162.113 1573.31 162.24 1572.61 162.24ZM1572.61 160.82C1573.48 160.82 1574.19 160.553 1574.73 160.02C1575.28 159.487 1575.55 158.673 1575.55 157.58V156.1C1575.55 155.007 1575.28 154.193 1574.73 153.66C1574.19 153.127 1573.48 152.86 1572.61 152.86C1571.75 152.86 1571.04 153.127 1570.49 153.66C1569.95 154.193 1569.67 155.007 1569.67 156.1V157.58C1569.67 158.673 1569.95 159.487 1570.49 160.02C1571.04 160.553 1571.75 160.82 1572.61 160.82ZM1579.9 162V151.68H1581.5V153.36H1581.58C1581.7 153.093 1581.84 152.847 1581.98 152.62C1582.14 152.38 1582.33 152.173 1582.54 152C1582.77 151.827 1583.03 151.693 1583.32 151.6C1583.62 151.493 1583.96 151.44 1584.36 151.44C1585.04 151.44 1585.67 151.607 1586.24 151.94C1586.82 152.26 1587.24 152.793 1587.52 153.54H1587.56C1587.75 152.98 1588.1 152.493 1588.6 152.08C1589.12 151.653 1589.82 151.44 1590.7 151.44C1591.76 151.44 1592.58 151.787 1593.16 152.48C1593.76 153.16 1594.06 154.127 1594.06 155.38V162H1592.46V155.66C1592.46 154.74 1592.28 154.047 1591.92 153.58C1591.56 153.113 1590.99 152.88 1590.2 152.88C1589.88 152.88 1589.58 152.92 1589.28 153C1589 153.08 1588.75 153.2 1588.52 153.36C1588.3 153.52 1588.12 153.727 1587.98 153.98C1587.85 154.22 1587.78 154.507 1587.78 154.84V162H1586.18V155.66C1586.18 154.74 1586 154.047 1585.64 153.58C1585.28 153.113 1584.72 152.88 1583.96 152.88C1583.64 152.88 1583.34 152.92 1583.04 153C1582.75 153.08 1582.49 153.2 1582.26 153.36C1582.04 153.52 1581.85 153.727 1581.7 153.98C1581.57 154.22 1581.5 154.507 1581.5 154.84V162H1579.9ZM1597.36 162V151.68H1598.96V153.36H1599.04C1599.16 153.093 1599.3 152.847 1599.44 152.62C1599.6 152.38 1599.79 152.173 1600 152C1600.23 151.827 1600.49 151.693 1600.78 151.6C1601.08 151.493 1601.42 151.44 1601.82 151.44C1602.5 151.44 1603.13 151.607 1603.7 151.94C1604.28 152.26 1604.7 152.793 1604.98 153.54H1605.02C1605.21 152.98 1605.56 152.493 1606.06 152.08C1606.58 151.653 1607.28 151.44 1608.16 151.44C1609.22 151.44 1610.04 151.787 1610.62 152.48C1611.22 153.16 1611.52 154.127 1611.52 155.38V162H1609.92V155.66C1609.92 154.74 1609.74 154.047 1609.38 153.58C1609.02 153.113 1608.45 152.88 1607.66 152.88C1607.34 152.88 1607.04 152.92 1606.74 153C1606.46 153.08 1606.21 153.2 1605.98 153.36C1605.76 153.52 1605.58 153.727 1605.44 153.98C1605.31 154.22 1605.24 154.507 1605.24 154.84V162H1603.64V155.66C1603.64 154.74 1603.46 154.047 1603.1 153.58C1602.74 153.113 1602.18 152.88 1601.42 152.88C1601.1 152.88 1600.8 152.92 1600.5 153C1600.21 153.08 1599.95 153.2 1599.72 153.36C1599.5 153.52 1599.31 153.727 1599.16 153.98C1599.03 154.22 1598.96 154.507 1598.96 154.84V162H1597.36ZM1621.19 160.32H1621.11C1621 160.56 1620.87 160.8 1620.71 161.04C1620.56 161.267 1620.37 161.473 1620.15 161.66C1619.92 161.833 1619.65 161.973 1619.33 162.08C1619.01 162.187 1618.63 162.24 1618.21 162.24C1617.14 162.24 1616.29 161.9 1615.67 161.22C1615.04 160.527 1614.73 159.553 1614.73 158.3V151.68H1616.33V158.02C1616.33 159.873 1617.11 160.8 1618.69 160.8C1619.01 160.8 1619.31 160.76 1619.61 160.68C1619.91 160.6 1620.18 160.48 1620.41 160.32C1620.65 160.16 1620.83 159.96 1620.97 159.72C1621.11 159.467 1621.19 159.167 1621.19 158.82V151.68H1622.79V162H1621.19V160.32ZM1626.19 162V151.68H1627.79V153.36H1627.87C1628.13 152.773 1628.48 152.307 1628.93 151.96C1629.4 151.613 1630.02 151.44 1630.79 151.44C1631.86 151.44 1632.7 151.787 1633.31 152.48C1633.94 153.16 1634.25 154.127 1634.25 155.38V162H1632.65V155.66C1632.65 153.807 1631.87 152.88 1630.31 152.88C1629.99 152.88 1629.68 152.92 1629.37 153C1629.08 153.08 1628.81 153.2 1628.57 153.36C1628.33 153.52 1628.14 153.727 1627.99 153.98C1627.86 154.22 1627.79 154.507 1627.79 154.84V162H1626.19ZM1638.36 149.26C1638.01 149.26 1637.76 149.18 1637.6 149.02C1637.45 148.847 1637.38 148.627 1637.38 148.36V148.1C1637.38 147.833 1637.45 147.62 1637.6 147.46C1637.76 147.287 1638.01 147.2 1638.36 147.2C1638.71 147.2 1638.95 147.287 1639.1 147.46C1639.26 147.62 1639.34 147.833 1639.34 148.1V148.36C1639.34 148.627 1639.26 148.847 1639.1 149.02C1638.95 149.18 1638.71 149.26 1638.36 149.26ZM1637.56 151.68H1639.16V162H1637.56V151.68ZM1644.84 162C1644.28 162 1643.85 161.847 1643.56 161.54C1643.28 161.22 1643.14 160.807 1643.14 160.3V153.08H1641.44V151.68H1642.4C1642.75 151.68 1642.98 151.613 1643.1 151.48C1643.23 151.333 1643.3 151.087 1643.3 150.74V148.82H1644.74V151.68H1647V153.08H1644.74V160.6H1646.84V162H1644.84ZM1655.93 151.68H1657.51L1652.89 164.4C1652.77 164.707 1652.65 164.96 1652.53 165.16C1652.41 165.373 1652.26 165.54 1652.09 165.66C1651.92 165.78 1651.7 165.867 1651.43 165.92C1651.18 165.973 1650.86 166 1650.49 166H1649.67V164.6H1651.29L1652.07 162.4L1648.21 151.68H1649.81L1652.29 158.7L1652.77 160.38H1652.87L1653.43 158.7L1655.93 151.68Z" fill="#FAFAFA"/>
<path d="M1117.7 90.68H1119.3V95H1121.36L1123.36 91.84C1123.51 91.6 1123.65 91.4067 1123.78 91.26C1123.91 91.1 1124.05 90.98 1124.18 90.9C1124.31 90.82 1124.45 90.7667 1124.6 90.74C1124.75 90.7 1124.91 90.68 1125.1 90.68H1126.04V92.08H1124.8L1123.18 94.64C1123.07 94.8133 1122.98 94.9533 1122.9 95.06C1122.82 95.1667 1122.74 95.26 1122.66 95.34C1122.58 95.4067 1122.49 95.4667 1122.4 95.52C1122.31 95.56 1122.19 95.6 1122.06 95.64V95.72C1122.34 95.76 1122.58 95.8533 1122.78 96C1122.99 96.1333 1123.21 96.4 1123.44 96.8L1125.02 99.6H1126.2V101H1125.04C1124.69 101 1124.37 100.913 1124.08 100.74C1123.8 100.553 1123.53 100.22 1123.26 99.74L1121.36 96.36H1119.3V101H1117.7V90.68ZM1135.06 90.68H1136.64L1132.02 103.4C1131.9 103.707 1131.78 103.96 1131.66 104.16C1131.54 104.373 1131.39 104.54 1131.22 104.66C1131.04 104.78 1130.82 104.867 1130.56 104.92C1130.3 104.973 1129.99 105 1129.62 105H1128.8V103.6H1130.42L1131.2 101.4L1127.34 90.68H1128.94L1131.42 97.7L1131.9 99.38H1132L1132.56 97.7L1135.06 90.68ZM1138.68 90.68H1140.28V92.36H1140.36C1140.62 91.7067 1141.01 91.2267 1141.52 90.92C1142.04 90.6 1142.66 90.44 1143.38 90.44C1144.02 90.44 1144.6 90.5667 1145.12 90.82C1145.64 91.0733 1146.08 91.4333 1146.44 91.9C1146.81 92.3667 1147.09 92.9333 1147.28 93.6C1147.48 94.2667 1147.58 95.0133 1147.58 95.84C1147.58 96.6667 1147.48 97.4133 1147.28 98.08C1147.09 98.7467 1146.81 99.3133 1146.44 99.78C1146.08 100.247 1145.64 100.607 1145.12 100.86C1144.6 101.113 1144.02 101.24 1143.38 101.24C1141.98 101.24 1140.97 100.6 1140.36 99.32H1140.28V105H1138.68V90.68ZM1142.94 99.8C1143.84 99.8 1144.56 99.52 1145.08 98.96C1145.6 98.3867 1145.86 97.64 1145.86 96.72V94.96C1145.86 94.04 1145.6 93.3 1145.08 92.74C1144.56 92.1667 1143.84 91.88 1142.94 91.88C1142.58 91.88 1142.23 91.9333 1141.9 92.04C1141.58 92.1333 1141.3 92.2667 1141.06 92.44C1140.82 92.6133 1140.62 92.8267 1140.48 93.08C1140.34 93.32 1140.28 93.58 1140.28 93.86V97.7C1140.28 98.0333 1140.34 98.3333 1140.48 98.6C1140.62 98.8533 1140.82 99.0733 1141.06 99.26C1141.3 99.4333 1141.58 99.5667 1141.9 99.66C1142.23 99.7533 1142.58 99.8 1142.94 99.8ZM1157.78 101C1157.18 101 1156.74 100.84 1156.48 100.52C1156.22 100.2 1156.06 99.8 1156 99.32H1155.9C1155.67 99.96 1155.3 100.44 1154.78 100.76C1154.26 101.08 1153.64 101.24 1152.92 101.24C1151.82 101.24 1150.97 100.96 1150.36 100.4C1149.76 99.84 1149.46 99.08 1149.46 98.12C1149.46 97.1467 1149.81 96.4 1150.52 95.88C1151.24 95.36 1152.35 95.1 1153.86 95.1H1155.9V94.08C1155.9 93.3467 1155.7 92.7867 1155.3 92.4C1154.9 92.0133 1154.28 91.82 1153.46 91.82C1152.83 91.82 1152.3 91.96 1151.88 92.24C1151.46 92.52 1151.12 92.8933 1150.84 93.36L1149.88 92.46C1150.16 91.9 1150.6 91.4267 1151.22 91.04C1151.83 90.64 1152.6 90.44 1153.54 90.44C1154.79 90.44 1155.76 90.7467 1156.46 91.36C1157.15 91.9733 1157.5 92.8267 1157.5 93.92V99.6H1158.68V101H1157.78ZM1153.18 99.88C1153.58 99.88 1153.94 99.8333 1154.28 99.74C1154.61 99.6467 1154.9 99.5133 1155.14 99.34C1155.38 99.1667 1155.56 98.9667 1155.7 98.74C1155.83 98.5133 1155.9 98.2667 1155.9 98V96.3H1153.78C1152.86 96.3 1152.18 96.4333 1151.76 96.7C1151.34 96.9667 1151.14 97.3533 1151.14 97.86V98.28C1151.14 98.7867 1151.32 99.18 1151.68 99.46C1152.05 99.74 1152.55 99.88 1153.18 99.88ZM1162.81 92.08H1159.29V90.68H1167.93V92.08H1164.41V101H1162.81V92.08ZM1173.67 101.24C1172.98 101.24 1172.34 101.113 1171.77 100.86C1171.2 100.607 1170.7 100.247 1170.29 99.78C1169.89 99.3 1169.58 98.7333 1169.35 98.08C1169.12 97.4133 1169.01 96.6667 1169.01 95.84C1169.01 95.0267 1169.12 94.2867 1169.35 93.62C1169.58 92.9533 1169.89 92.3867 1170.29 91.92C1170.7 91.44 1171.2 91.0733 1171.77 90.82C1172.34 90.5667 1172.98 90.44 1173.67 90.44C1174.36 90.44 1174.99 90.5667 1175.55 90.82C1176.12 91.0733 1176.62 91.44 1177.03 91.92C1177.44 92.3867 1177.76 92.9533 1177.99 93.62C1178.22 94.2867 1178.33 95.0267 1178.33 95.84C1178.33 96.6667 1178.22 97.4133 1177.99 98.08C1177.76 98.7333 1177.44 99.3 1177.03 99.78C1176.62 100.247 1176.12 100.607 1175.55 100.86C1174.99 101.113 1174.36 101.24 1173.67 101.24ZM1173.67 99.82C1174.54 99.82 1175.24 99.5533 1175.79 99.02C1176.34 98.4867 1176.61 97.6733 1176.61 96.58V95.1C1176.61 94.0067 1176.34 93.1933 1175.79 92.66C1175.24 92.1267 1174.54 91.86 1173.67 91.86C1172.8 91.86 1172.1 92.1267 1171.55 92.66C1171 93.1933 1170.73 94.0067 1170.73 95.1V96.58C1170.73 97.6733 1171 98.4867 1171.55 99.02C1172.1 99.5533 1172.8 99.82 1173.67 99.82ZM1180.96 90.68H1182.56V92.36H1182.64C1182.91 91.7067 1183.3 91.2267 1183.8 90.92C1184.32 90.6 1184.94 90.44 1185.66 90.44C1186.3 90.44 1186.88 90.5667 1187.4 90.82C1187.92 91.0733 1188.36 91.4333 1188.72 91.9C1189.1 92.3667 1189.38 92.9333 1189.56 93.6C1189.76 94.2667 1189.86 95.0133 1189.86 95.84C1189.86 96.6667 1189.76 97.4133 1189.56 98.08C1189.38 98.7467 1189.1 99.3133 1188.72 99.78C1188.36 100.247 1187.92 100.607 1187.4 100.86C1186.88 101.113 1186.3 101.24 1185.66 101.24C1184.26 101.24 1183.26 100.6 1182.64 99.32H1182.56V105H1180.96V90.68ZM1185.22 99.8C1186.13 99.8 1186.84 99.52 1187.36 98.96C1187.88 98.3867 1188.14 97.64 1188.14 96.72V94.96C1188.14 94.04 1187.88 93.3 1187.36 92.74C1186.84 92.1667 1186.13 91.88 1185.22 91.88C1184.86 91.88 1184.52 91.9333 1184.18 92.04C1183.86 92.1333 1183.58 92.2667 1183.34 92.44C1183.1 92.6133 1182.91 92.8267 1182.76 93.08C1182.63 93.32 1182.56 93.58 1182.56 93.86V97.7C1182.56 98.0333 1182.63 98.3333 1182.76 98.6C1182.91 98.8533 1183.1 99.0733 1183.34 99.26C1183.58 99.4333 1183.86 99.5667 1184.18 99.66C1184.52 99.7533 1184.86 99.8 1185.22 99.8ZM1192.56 90.68H1194.16V94.42H1196.9C1197.94 94.42 1198.77 94.7133 1199.38 95.3C1200 95.8867 1200.3 96.6933 1200.3 97.72C1200.3 98.76 1200 99.5667 1199.4 100.14C1198.8 100.713 1197.98 101 1196.92 101H1192.56V90.68ZM1196.68 99.6C1197.28 99.6 1197.75 99.4867 1198.08 99.26C1198.42 99.0333 1198.58 98.6533 1198.58 98.12V97.28C1198.58 96.7467 1198.42 96.3733 1198.08 96.16C1197.75 95.9333 1197.28 95.82 1196.68 95.82H1194.16V99.6H1196.68ZM1202.04 90.68H1203.64V101H1202.04V90.68ZM1208.26 101.24C1207.83 101.24 1207.52 101.133 1207.32 100.92C1207.13 100.707 1207.04 100.427 1207.04 100.08V99.82C1207.04 99.4733 1207.13 99.1933 1207.32 98.98C1207.52 98.7667 1207.83 98.66 1208.26 98.66C1208.68 98.66 1208.99 98.7667 1209.18 98.98C1209.38 99.1933 1209.48 99.4733 1209.48 99.82V100.08C1209.48 100.427 1209.38 100.707 1209.18 100.92C1208.99 101.133 1208.68 101.24 1208.26 101.24ZM1208.26 93.02C1207.83 93.02 1207.52 92.9133 1207.32 92.7C1207.13 92.4867 1207.04 92.2067 1207.04 91.86V91.6C1207.04 91.2533 1207.13 90.9733 1207.32 90.76C1207.52 90.5467 1207.83 90.44 1208.26 90.44C1208.68 90.44 1208.99 90.5467 1209.18 90.76C1209.38 90.9733 1209.48 91.2533 1209.48 91.6V91.86C1209.48 92.2067 1209.38 92.4867 1209.18 92.7C1208.99 92.9133 1208.68 93.02 1208.26 93.02Z" fill="#FAFAFA"/>
<path d="M783.2 102C782.6 102 782.167 101.84 781.9 101.52C781.647 101.2 781.487 100.8 781.42 100.32H781.32C781.093 100.96 780.72 101.44 780.2 101.76C779.68 102.08 779.06 102.24 778.34 102.24C777.247 102.24 776.393 101.96 775.78 101.4C775.18 100.84 774.88 100.08 774.88 99.12C774.88 98.1467 775.233 97.4 775.94 96.88C776.66 96.36 777.773 96.1 779.28 96.1H781.32V95.08C781.32 94.3467 781.12 93.7867 780.72 93.4C780.32 93.0133 779.707 92.82 778.88 92.82C778.253 92.82 777.727 92.96 777.3 93.24C776.887 93.52 776.54 93.8933 776.26 94.36L775.3 93.46C775.58 92.9 776.027 92.4267 776.64 92.04C777.253 91.64 778.027 91.44 778.96 91.44C780.213 91.44 781.187 91.7467 781.88 92.36C782.573 92.9733 782.92 93.8267 782.92 94.92V100.6H784.1V102H783.2ZM778.6 100.88C779 100.88 779.367 100.833 779.7 100.74C780.033 100.647 780.32 100.513 780.56 100.34C780.8 100.167 780.987 99.9667 781.12 99.74C781.253 99.5133 781.32 99.2667 781.32 99V97.3H779.2C778.28 97.3 777.607 97.4333 777.18 97.7C776.767 97.9667 776.56 98.3533 776.56 98.86V99.28C776.56 99.7867 776.74 100.18 777.1 100.46C777.473 100.74 777.973 100.88 778.6 100.88ZM786.384 91.68H791.584C792.424 91.68 793.084 91.92 793.564 92.4C794.044 92.8667 794.284 93.5 794.284 94.3C794.284 95.5933 793.61 96.32 792.264 96.48V96.56C793.064 96.6267 793.657 96.88 794.044 97.32C794.444 97.7467 794.644 98.28 794.644 98.92C794.644 99.3333 794.577 99.7267 794.444 100.1C794.324 100.473 794.144 100.8 793.904 101.08C793.664 101.36 793.37 101.587 793.024 101.76C792.677 101.92 792.284 102 791.844 102H786.384V91.68ZM791.364 100.68C791.844 100.68 792.224 100.553 792.504 100.3C792.784 100.047 792.924 99.6867 792.924 99.22V98.76C792.924 98.2933 792.784 97.9333 792.504 97.68C792.224 97.4267 791.844 97.3 791.364 97.3H787.984V100.68H791.364ZM791.164 96C791.604 96 791.944 95.8933 792.184 95.68C792.437 95.4533 792.564 95.1333 792.564 94.72V94.28C792.564 93.8667 792.437 93.5533 792.184 93.34C791.944 93.1133 791.604 93 791.164 93H787.984V96H791.164ZM799.522 93.08H796.002V91.68H804.642V93.08H801.122V102H799.522V93.08ZM810.381 102.24C809.688 102.24 809.055 102.113 808.481 101.86C807.908 101.607 807.415 101.247 807.001 100.78C806.601 100.3 806.288 99.7333 806.061 99.08C805.835 98.4133 805.721 97.6667 805.721 96.84C805.721 96.0267 805.835 95.2867 806.061 94.62C806.288 93.9533 806.601 93.3867 807.001 92.92C807.415 92.44 807.908 92.0733 808.481 91.82C809.055 91.5667 809.688 91.44 810.381 91.44C811.075 91.44 811.701 91.5667 812.261 91.82C812.835 92.0733 813.328 92.44 813.741 92.92C814.155 93.3867 814.475 93.9533 814.701 94.62C814.928 95.2867 815.041 96.0267 815.041 96.84C815.041 97.6667 814.928 98.4133 814.701 99.08C814.475 99.7333 814.155 100.3 813.741 100.78C813.328 101.247 812.835 101.607 812.261 101.86C811.701 102.113 811.075 102.24 810.381 102.24ZM810.381 100.82C811.248 100.82 811.955 100.553 812.501 100.02C813.048 99.4867 813.321 98.6733 813.321 97.58V96.1C813.321 95.0067 813.048 94.1933 812.501 93.66C811.955 93.1267 811.248 92.86 810.381 92.86C809.515 92.86 808.808 93.1267 808.261 93.66C807.715 94.1933 807.441 95.0067 807.441 96.1V97.58C807.441 98.6733 807.715 99.4867 808.261 100.02C808.808 100.553 809.515 100.82 810.381 100.82ZM817.673 91.68H819.273V93.36H819.353C819.619 92.7067 820.006 92.2267 820.513 91.92C821.033 91.6 821.653 91.44 822.373 91.44C823.013 91.44 823.593 91.5667 824.113 91.82C824.633 92.0733 825.073 92.4333 825.433 92.9C825.806 93.3667 826.086 93.9333 826.273 94.6C826.473 95.2667 826.573 96.0133 826.573 96.84C826.573 97.6667 826.473 98.4133 826.273 99.08C826.086 99.7467 825.806 100.313 825.433 100.78C825.073 101.247 824.633 101.607 824.113 101.86C823.593 102.113 823.013 102.24 822.373 102.24C820.973 102.24 819.966 101.6 819.353 100.32H819.273V106H817.673V91.68ZM821.933 100.8C822.839 100.8 823.553 100.52 824.073 99.96C824.593 99.3867 824.853 98.64 824.853 97.72V95.96C824.853 95.04 824.593 94.3 824.073 93.74C823.553 93.1667 822.839 92.88 821.933 92.88C821.573 92.88 821.226 92.9333 820.893 93.04C820.573 93.1333 820.293 93.2667 820.053 93.44C819.813 93.6133 819.619 93.8267 819.473 94.08C819.339 94.32 819.273 94.58 819.273 94.86V98.7C819.273 99.0333 819.339 99.3333 819.473 99.6C819.619 99.8533 819.813 100.073 820.053 100.26C820.293 100.433 820.573 100.567 820.893 100.66C821.226 100.753 821.573 100.8 821.933 100.8ZM829.274 91.68H830.874V95.42H833.614C834.654 95.42 835.481 95.7133 836.094 96.3C836.708 96.8867 837.014 97.6933 837.014 98.72C837.014 99.76 836.714 100.567 836.114 101.14C835.514 101.713 834.688 102 833.634 102H829.274V91.68ZM833.394 100.6C833.994 100.6 834.461 100.487 834.794 100.26C835.128 100.033 835.294 99.6533 835.294 99.12V98.28C835.294 97.7467 835.128 97.3733 834.794 97.16C834.461 96.9333 833.994 96.82 833.394 96.82H830.874V100.6H833.394ZM838.754 91.68H840.354V102H838.754V91.68ZM844.967 102.24C844.54 102.24 844.227 102.133 844.027 101.92C843.84 101.707 843.747 101.427 843.747 101.08V100.82C843.747 100.473 843.84 100.193 844.027 99.98C844.227 99.7667 844.54 99.66 844.967 99.66C845.394 99.66 845.7 99.7667 845.887 99.98C846.087 100.193 846.187 100.473 846.187 100.82V101.08C846.187 101.427 846.087 101.707 845.887 101.92C845.7 102.133 845.394 102.24 844.967 102.24ZM844.967 94.02C844.54 94.02 844.227 93.9133 844.027 93.7C843.84 93.4867 843.747 93.2067 843.747 92.86V92.6C843.747 92.2533 843.84 91.9733 844.027 91.76C844.227 91.5467 844.54 91.44 844.967 91.44C845.394 91.44 845.7 91.5467 845.887 91.76C846.087 91.9733 846.187 92.2533 846.187 92.6V92.86C846.187 93.2067 846.087 93.4867 845.887 93.7C845.7 93.9133 845.394 94.02 844.967 94.02Z" fill="#FAFAFA"/>
<path d="M1530.66 195H1521.5V193.28L1526.06 189.08C1526.71 188.48 1527.26 187.847 1527.7 187.18C1528.14 186.5 1528.36 185.82 1528.36 185.14V184.9C1528.36 184.127 1528.15 183.5 1527.72 183.02C1527.29 182.54 1526.65 182.3 1525.78 182.3C1525.35 182.3 1524.98 182.36 1524.66 182.48C1524.34 182.6 1524.06 182.767 1523.82 182.98C1523.59 183.193 1523.4 183.447 1523.24 183.74C1523.09 184.02 1522.97 184.327 1522.88 184.66L1521.38 184.08C1521.51 183.667 1521.69 183.267 1521.92 182.88C1522.16 182.48 1522.45 182.127 1522.8 181.82C1523.16 181.513 1523.59 181.267 1524.08 181.08C1524.59 180.893 1525.18 180.8 1525.86 180.8C1526.54 180.8 1527.15 180.9 1527.68 181.1C1528.21 181.3 1528.66 181.58 1529.02 181.94C1529.38 182.3 1529.65 182.727 1529.84 183.22C1530.04 183.713 1530.14 184.26 1530.14 184.86C1530.14 185.407 1530.06 185.913 1529.9 186.38C1529.75 186.847 1529.55 187.293 1529.28 187.72C1529.01 188.133 1528.69 188.54 1528.3 188.94C1527.93 189.34 1527.52 189.74 1527.08 190.14L1523.32 193.52H1530.66V195ZM1537.99 195.24C1536.33 195.24 1535.11 194.607 1534.33 193.34C1533.57 192.073 1533.19 190.3 1533.19 188.02C1533.19 185.74 1533.57 183.967 1534.33 182.7C1535.11 181.433 1536.33 180.8 1537.99 180.8C1539.66 180.8 1540.87 181.433 1541.63 182.7C1542.41 183.967 1542.79 185.74 1542.79 188.02C1542.79 190.3 1542.41 192.073 1541.63 193.34C1540.87 194.607 1539.66 195.24 1537.99 195.24ZM1537.99 193.78C1538.54 193.78 1539.01 193.667 1539.39 193.44C1539.78 193.213 1540.09 192.893 1540.33 192.48C1540.57 192.067 1540.75 191.58 1540.85 191.02C1540.97 190.46 1541.03 189.84 1541.03 189.16V186.88C1541.03 186.2 1540.97 185.58 1540.85 185.02C1540.75 184.46 1540.57 183.973 1540.33 183.56C1540.09 183.147 1539.78 182.827 1539.39 182.6C1539.01 182.373 1538.54 182.26 1537.99 182.26C1537.45 182.26 1536.98 182.373 1536.59 182.6C1536.21 182.827 1535.89 183.147 1535.65 183.56C1535.41 183.973 1535.23 184.46 1535.11 185.02C1535.01 185.58 1534.95 186.2 1534.95 186.88V189.16C1534.95 189.84 1535.01 190.46 1535.11 191.02C1535.23 191.58 1535.41 192.067 1535.65 192.48C1535.89 192.893 1536.21 193.213 1536.59 193.44C1536.98 193.667 1537.45 193.78 1537.99 193.78ZM1554.64 195H1545.48V193.28L1550.04 189.08C1550.7 188.48 1551.24 187.847 1551.68 187.18C1552.12 186.5 1552.34 185.82 1552.34 185.14V184.9C1552.34 184.127 1552.13 183.5 1551.7 183.02C1551.28 182.54 1550.63 182.3 1549.76 182.3C1549.34 182.3 1548.96 182.36 1548.64 182.48C1548.32 182.6 1548.04 182.767 1547.8 182.98C1547.58 183.193 1547.38 183.447 1547.22 183.74C1547.08 184.02 1546.96 184.327 1546.86 184.66L1545.36 184.08C1545.5 183.667 1545.68 183.267 1545.9 182.88C1546.14 182.48 1546.44 182.127 1546.78 181.82C1547.14 181.513 1547.57 181.267 1548.06 181.08C1548.57 180.893 1549.16 180.8 1549.84 180.8C1550.52 180.8 1551.13 180.9 1551.66 181.1C1552.2 181.3 1552.64 181.58 1553 181.94C1553.36 182.3 1553.64 182.727 1553.82 183.22C1554.02 183.713 1554.12 184.26 1554.12 184.86C1554.12 185.407 1554.04 185.913 1553.88 186.38C1553.74 186.847 1553.53 187.293 1553.26 187.72C1553 188.133 1552.67 188.54 1552.28 188.94C1551.91 189.34 1551.5 189.74 1551.06 190.14L1547.3 193.52H1554.64V195ZM1563.48 195V192.26H1556.74V190.78L1562.58 181.04H1565.08V190.86H1567.1V192.26H1565.08V195H1563.48ZM1558.32 190.86H1563.48V182.34H1563.38L1558.32 190.86ZM1568.15 198.02L1573.37 180.2H1574.81L1569.59 198.02H1568.15ZM1586.29 195H1577.13V193.28L1581.69 189.08C1582.34 188.48 1582.89 187.847 1583.33 187.18C1583.77 186.5 1583.99 185.82 1583.99 185.14V184.9C1583.99 184.127 1583.77 183.5 1583.35 183.02C1582.92 182.54 1582.27 182.3 1581.41 182.3C1580.98 182.3 1580.61 182.36 1580.29 182.48C1579.97 182.6 1579.69 182.767 1579.45 182.98C1579.22 183.193 1579.03 183.447 1578.87 183.74C1578.72 184.02 1578.6 184.327 1578.51 184.66L1577.01 184.08C1577.14 183.667 1577.32 183.267 1577.55 182.88C1577.79 182.48 1578.08 182.127 1578.43 181.82C1578.79 181.513 1579.21 181.267 1579.71 181.08C1580.21 180.893 1580.81 180.8 1581.49 180.8C1582.17 180.8 1582.77 180.9 1583.31 181.1C1583.84 181.3 1584.29 181.58 1584.65 181.94C1585.01 182.3 1585.28 182.727 1585.47 183.22C1585.67 183.713 1585.77 184.26 1585.77 184.86C1585.77 185.407 1585.69 185.913 1585.53 186.38C1585.38 186.847 1585.17 187.293 1584.91 187.72C1584.64 188.133 1584.31 188.54 1583.93 188.94C1583.55 189.34 1583.15 189.74 1582.71 190.14L1578.95 193.52H1586.29V195ZM1593.62 195.24C1591.95 195.24 1590.73 194.607 1589.96 193.34C1589.2 192.073 1588.82 190.3 1588.82 188.02C1588.82 185.74 1589.2 183.967 1589.96 182.7C1590.73 181.433 1591.95 180.8 1593.62 180.8C1595.28 180.8 1596.5 181.433 1597.26 182.7C1598.03 183.967 1598.42 185.74 1598.42 188.02C1598.42 190.3 1598.03 192.073 1597.26 193.34C1596.5 194.607 1595.28 195.24 1593.62 195.24ZM1593.62 193.78C1594.16 193.78 1594.63 193.667 1595.02 193.44C1595.4 193.213 1595.72 192.893 1595.96 192.48C1596.2 192.067 1596.37 191.58 1596.48 191.02C1596.6 190.46 1596.66 189.84 1596.66 189.16V186.88C1596.66 186.2 1596.6 185.58 1596.48 185.02C1596.37 184.46 1596.2 183.973 1595.96 183.56C1595.72 183.147 1595.4 182.827 1595.02 182.6C1594.63 182.373 1594.16 182.26 1593.62 182.26C1593.07 182.26 1592.6 182.373 1592.22 182.6C1591.83 182.827 1591.52 183.147 1591.28 183.56C1591.04 183.973 1590.86 184.46 1590.74 185.02C1590.63 185.58 1590.58 186.2 1590.58 186.88V189.16C1590.58 189.84 1590.63 190.46 1590.74 191.02C1590.86 191.58 1591.04 192.067 1591.28 192.48C1591.52 192.893 1591.83 193.213 1592.22 193.44C1592.6 193.667 1593.07 193.78 1593.62 193.78ZM1610.27 195H1601.11V193.28L1605.67 189.08C1606.32 188.48 1606.87 187.847 1607.31 187.18C1607.75 186.5 1607.97 185.82 1607.97 185.14V184.9C1607.97 184.127 1607.76 183.5 1607.33 183.02C1606.9 182.54 1606.26 182.3 1605.39 182.3C1604.96 182.3 1604.59 182.36 1604.27 182.48C1603.95 182.6 1603.67 182.767 1603.43 182.98C1603.2 183.193 1603.01 183.447 1602.85 183.74C1602.7 184.02 1602.58 184.327 1602.49 184.66L1600.99 184.08C1601.12 183.667 1601.3 183.267 1601.53 182.88C1601.77 182.48 1602.06 182.127 1602.41 181.82C1602.77 181.513 1603.2 181.267 1603.69 181.08C1604.2 180.893 1604.79 180.8 1605.47 180.8C1606.15 180.8 1606.76 180.9 1607.29 181.1C1607.82 181.3 1608.27 181.58 1608.63 181.94C1608.99 182.3 1609.26 182.727 1609.45 183.22C1609.65 183.713 1609.75 184.26 1609.75 184.86C1609.75 185.407 1609.67 185.913 1609.51 186.38C1609.36 186.847 1609.16 187.293 1608.89 187.72C1608.62 188.133 1608.3 188.54 1607.91 188.94C1607.54 189.34 1607.13 189.74 1606.69 190.14L1602.93 193.52H1610.27V195ZM1621.56 182.52H1615.44L1615.04 187.84H1615.18C1615.51 187.373 1615.89 187 1616.3 186.72C1616.73 186.44 1617.31 186.3 1618.04 186.3C1618.64 186.3 1619.19 186.4 1619.7 186.6C1620.21 186.8 1620.65 187.087 1621.02 187.46C1621.39 187.82 1621.68 188.267 1621.88 188.8C1622.09 189.333 1622.2 189.94 1622.2 190.62C1622.2 191.3 1622.09 191.927 1621.88 192.5C1621.67 193.06 1621.35 193.547 1620.94 193.96C1620.54 194.36 1620.05 194.673 1619.46 194.9C1618.89 195.127 1618.23 195.24 1617.5 195.24C1616.91 195.24 1616.39 195.173 1615.94 195.04C1615.5 194.907 1615.11 194.727 1614.76 194.5C1614.41 194.273 1614.11 194.02 1613.84 193.74C1613.59 193.46 1613.35 193.167 1613.14 192.86L1614.4 191.9C1614.57 192.18 1614.75 192.433 1614.94 192.66C1615.14 192.887 1615.35 193.08 1615.58 193.24C1615.82 193.4 1616.09 193.527 1616.4 193.62C1616.71 193.7 1617.07 193.74 1617.5 193.74C1618.46 193.74 1619.19 193.487 1619.68 192.98C1620.17 192.473 1620.42 191.76 1620.42 190.84V190.64C1620.42 189.72 1620.17 189.007 1619.68 188.5C1619.19 187.993 1618.46 187.74 1617.5 187.74C1616.86 187.74 1616.35 187.86 1615.98 188.1C1615.62 188.327 1615.29 188.6 1615 188.92L1613.58 188.72L1614.08 181.04H1621.56V182.52Z" fill="#FAFAFA"/>
<path d="M1120.62 134.24C1119.57 134.24 1118.73 134.06 1118.1 133.7C1117.47 133.34 1116.96 132.827 1116.56 132.16L1117.76 131.2C1118.03 131.707 1118.39 132.107 1118.86 132.4C1119.34 132.68 1119.93 132.82 1120.62 132.82C1121.46 132.82 1122.08 132.667 1122.48 132.36C1122.89 132.053 1123.1 131.66 1123.1 131.18V130.94C1123.1 130.42 1122.92 130.027 1122.56 129.76C1122.21 129.48 1121.72 129.34 1121.08 129.34H1118.88V128H1120.88C1121.52 128 1122.01 127.873 1122.36 127.62C1122.71 127.367 1122.88 127.007 1122.88 126.54V126.3C1122.88 125.86 1122.7 125.513 1122.34 125.26C1121.99 124.993 1121.41 124.86 1120.58 124.86C1119.9 124.86 1119.34 125 1118.9 125.28C1118.46 125.547 1118.11 125.913 1117.84 126.38L1116.78 125.48C1117.1 124.88 1117.57 124.393 1118.18 124.02C1118.81 123.633 1119.63 123.44 1120.66 123.44C1122.01 123.44 1123 123.687 1123.64 124.18C1124.28 124.673 1124.6 125.353 1124.6 126.22C1124.6 126.86 1124.43 127.367 1124.08 127.74C1123.75 128.113 1123.26 128.373 1122.62 128.52V128.6C1123.35 128.707 1123.9 128.973 1124.26 129.4C1124.63 129.813 1124.82 130.347 1124.82 131C1124.82 132 1124.44 132.793 1123.68 133.38C1122.93 133.953 1121.91 134.24 1120.62 134.24ZM1135.12 134C1134.52 134 1134.09 133.84 1133.82 133.52C1133.57 133.2 1133.41 132.8 1133.34 132.32H1133.24C1133.02 132.96 1132.64 133.44 1132.12 133.76C1131.6 134.08 1130.98 134.24 1130.26 134.24C1129.17 134.24 1128.32 133.96 1127.7 133.4C1127.1 132.84 1126.8 132.08 1126.8 131.12C1126.8 130.147 1127.16 129.4 1127.86 128.88C1128.58 128.36 1129.7 128.1 1131.2 128.1H1133.24V127.08C1133.24 126.347 1133.04 125.787 1132.64 125.4C1132.24 125.013 1131.63 124.82 1130.8 124.82C1130.18 124.82 1129.65 124.96 1129.22 125.24C1128.81 125.52 1128.46 125.893 1128.18 126.36L1127.22 125.46C1127.5 124.9 1127.95 124.427 1128.56 124.04C1129.18 123.64 1129.95 123.44 1130.88 123.44C1132.14 123.44 1133.11 123.747 1133.8 124.36C1134.5 124.973 1134.84 125.827 1134.84 126.92V132.6H1136.02V134H1135.12ZM1130.52 132.88C1130.92 132.88 1131.29 132.833 1131.62 132.74C1131.96 132.647 1132.24 132.513 1132.48 132.34C1132.72 132.167 1132.91 131.967 1133.04 131.74C1133.18 131.513 1133.24 131.267 1133.24 131V129.3H1131.12C1130.2 129.3 1129.53 129.433 1129.1 129.7C1128.69 129.967 1128.48 130.353 1128.48 130.86V131.28C1128.48 131.787 1128.66 132.18 1129.02 132.46C1129.4 132.74 1129.9 132.88 1130.52 132.88ZM1137.12 134L1140.94 128.8L1137.28 123.68H1139.16L1141.78 127.52H1141.84L1144.56 123.68H1146.34L1142.7 128.68L1146.42 134H1144.54L1141.86 129.96H1141.8L1138.9 134H1137.12ZM1155.98 134C1155.38 134 1154.95 133.84 1154.68 133.52C1154.43 133.2 1154.27 132.8 1154.2 132.32H1154.1C1153.87 132.96 1153.5 133.44 1152.98 133.76C1152.46 134.08 1151.84 134.24 1151.12 134.24C1150.03 134.24 1149.17 133.96 1148.56 133.4C1147.96 132.84 1147.66 132.08 1147.66 131.12C1147.66 130.147 1148.01 129.4 1148.72 128.88C1149.44 128.36 1150.55 128.1 1152.06 128.1H1154.1V127.08C1154.1 126.347 1153.9 125.787 1153.5 125.4C1153.1 125.013 1152.49 124.82 1151.66 124.82C1151.03 124.82 1150.51 124.96 1150.08 125.24C1149.67 125.52 1149.32 125.893 1149.04 126.36L1148.08 125.46C1148.36 124.9 1148.81 124.427 1149.42 124.04C1150.03 123.64 1150.81 123.44 1151.74 123.44C1152.99 123.44 1153.97 123.747 1154.66 124.36C1155.35 124.973 1155.7 125.827 1155.7 126.92V132.6H1156.88V134H1155.98ZM1151.38 132.88C1151.78 132.88 1152.15 132.833 1152.48 132.74C1152.81 132.647 1153.1 132.513 1153.34 132.34C1153.58 132.167 1153.77 131.967 1153.9 131.74C1154.03 131.513 1154.1 131.267 1154.1 131V129.3H1151.98C1151.06 129.3 1150.39 129.433 1149.96 129.7C1149.55 129.967 1149.34 130.353 1149.34 130.86V131.28C1149.34 131.787 1149.52 132.18 1149.88 132.46C1150.25 132.74 1150.75 132.88 1151.38 132.88ZM1159.16 123.68H1160.76V125.36H1160.84C1161.11 124.707 1161.5 124.227 1162 123.92C1162.52 123.6 1163.14 123.44 1163.86 123.44C1164.5 123.44 1165.08 123.567 1165.6 123.82C1166.12 124.073 1166.56 124.433 1166.92 124.9C1167.3 125.367 1167.58 125.933 1167.76 126.6C1167.96 127.267 1168.06 128.013 1168.06 128.84C1168.06 129.667 1167.96 130.413 1167.76 131.08C1167.58 131.747 1167.3 132.313 1166.92 132.78C1166.56 133.247 1166.12 133.607 1165.6 133.86C1165.08 134.113 1164.5 134.24 1163.86 134.24C1162.46 134.24 1161.46 133.6 1160.84 132.32H1160.76V138H1159.16V123.68ZM1163.42 132.8C1164.33 132.8 1165.04 132.52 1165.56 131.96C1166.08 131.387 1166.34 130.64 1166.34 129.72V127.96C1166.34 127.04 1166.08 126.3 1165.56 125.74C1165.04 125.167 1164.33 124.88 1163.42 124.88C1163.06 124.88 1162.72 124.933 1162.38 125.04C1162.06 125.133 1161.78 125.267 1161.54 125.44C1161.3 125.613 1161.11 125.827 1160.96 126.08C1160.83 126.32 1160.76 126.58 1160.76 126.86V130.7C1160.76 131.033 1160.83 131.333 1160.96 131.6C1161.11 131.853 1161.3 132.073 1161.54 132.26C1161.78 132.433 1162.06 132.567 1162.38 132.66C1162.72 132.753 1163.06 132.8 1163.42 132.8ZM1173.95 132.6H1175.13C1175.55 131.933 1175.88 131.1 1176.13 130.1C1176.39 129.1 1176.51 127.953 1176.51 126.66V123.68H1183.49V132.6H1185.21V136.8H1183.75V134H1175.41V136.8H1173.95V132.6ZM1181.89 132.6V125.08H1178.03V126.74C1178.03 128.113 1177.91 129.287 1177.67 130.26C1177.45 131.22 1177.17 132 1176.85 132.6H1181.89ZM1191.31 134.24C1190.6 134.24 1189.96 134.113 1189.39 133.86C1188.83 133.607 1188.34 133.247 1187.93 132.78C1187.53 132.3 1187.21 131.733 1186.99 131.08C1186.77 130.413 1186.67 129.667 1186.67 128.84C1186.67 128.027 1186.77 127.287 1186.99 126.62C1187.21 125.953 1187.53 125.387 1187.93 124.92C1188.34 124.44 1188.83 124.073 1189.39 123.82C1189.96 123.567 1190.6 123.44 1191.31 123.44C1192 123.44 1192.62 123.567 1193.17 123.82C1193.71 124.073 1194.18 124.427 1194.57 124.88C1194.95 125.32 1195.25 125.847 1195.45 126.46C1195.66 127.073 1195.77 127.747 1195.77 128.48V129.24H1188.35V129.72C1188.35 130.16 1188.41 130.573 1188.55 130.96C1188.69 131.333 1188.89 131.66 1189.15 131.94C1189.41 132.22 1189.73 132.44 1190.11 132.6C1190.49 132.76 1190.93 132.84 1191.41 132.84C1192.06 132.84 1192.63 132.687 1193.11 132.38C1193.6 132.073 1193.98 131.633 1194.25 131.06L1195.39 131.88C1195.05 132.587 1194.53 133.16 1193.83 133.6C1193.12 134.027 1192.28 134.24 1191.31 134.24ZM1191.31 124.78C1190.87 124.78 1190.47 124.86 1190.11 125.02C1189.75 125.167 1189.43 125.38 1189.17 125.66C1188.91 125.94 1188.71 126.273 1188.57 126.66C1188.42 127.033 1188.35 127.447 1188.35 127.9V128.04H1194.05V127.82C1194.05 126.9 1193.79 126.167 1193.29 125.62C1192.79 125.06 1192.13 124.78 1191.31 124.78ZM1198.4 123.68H1200V127.98H1205.16V123.68H1206.76V134H1205.16V129.38H1200V134H1198.4V123.68ZM1210.16 123.68H1211.76V127.42H1214.7C1215.74 127.42 1216.57 127.713 1217.18 128.3C1217.79 128.887 1218.1 129.693 1218.1 130.72C1218.1 131.76 1217.8 132.567 1217.2 133.14C1216.6 133.713 1215.77 134 1214.72 134H1210.16V123.68ZM1214.48 132.6C1215.08 132.6 1215.55 132.487 1215.88 132.26C1216.21 132.033 1216.38 131.653 1216.38 131.12V130.28C1216.38 129.747 1216.21 129.373 1215.88 129.16C1215.55 128.933 1215.08 128.82 1214.48 128.82H1211.76V132.6H1214.48Z" fill="#FAFAFA"/>
<path d="M775.7 124.68H777.3V128.98H782.46V124.68H784.06V135H782.46V130.38H777.3V135H775.7V124.68ZM794.958 135C794.358 135 793.924 134.84 793.658 134.52C793.404 134.2 793.244 133.8 793.178 133.32H793.078C792.851 133.96 792.478 134.44 791.958 134.76C791.438 135.08 790.818 135.24 790.098 135.24C789.004 135.24 788.151 134.96 787.538 134.4C786.938 133.84 786.638 133.08 786.638 132.12C786.638 131.147 786.991 130.4 787.698 129.88C788.418 129.36 789.531 129.1 791.038 129.1H793.078V128.08C793.078 127.347 792.878 126.787 792.478 126.4C792.078 126.013 791.464 125.82 790.638 125.82C790.011 125.82 789.484 125.96 789.058 126.24C788.644 126.52 788.298 126.893 788.018 127.36L787.058 126.46C787.338 125.9 787.784 125.427 788.398 125.04C789.011 124.64 789.784 124.44 790.718 124.44C791.971 124.44 792.944 124.747 793.638 125.36C794.331 125.973 794.678 126.827 794.678 127.92V133.6H795.858V135H794.958ZM790.358 133.88C790.758 133.88 791.124 133.833 791.458 133.74C791.791 133.647 792.078 133.513 792.318 133.34C792.558 133.167 792.744 132.967 792.878 132.74C793.011 132.513 793.078 132.267 793.078 132V130.3H790.958C790.038 130.3 789.364 130.433 788.938 130.7C788.524 130.967 788.318 131.353 788.318 131.86V132.28C788.318 132.787 788.498 133.18 788.858 133.46C789.231 133.74 789.731 133.88 790.358 133.88ZM801.981 135.24C801.261 135.24 800.615 135.113 800.041 134.86C799.468 134.607 798.981 134.247 798.581 133.78C798.195 133.313 797.895 132.747 797.681 132.08C797.481 131.413 797.381 130.667 797.381 129.84C797.381 129.013 797.481 128.267 797.681 127.6C797.895 126.933 798.195 126.367 798.581 125.9C798.981 125.433 799.468 125.073 800.041 124.82C800.615 124.567 801.261 124.44 801.981 124.44C803.008 124.44 803.828 124.667 804.441 125.12C805.068 125.56 805.535 126.14 805.841 126.86L804.501 127.54C804.315 127.007 804.008 126.593 803.581 126.3C803.155 126.007 802.621 125.86 801.981 125.86C801.501 125.86 801.081 125.94 800.721 126.1C800.361 126.247 800.061 126.46 799.821 126.74C799.581 127.007 799.401 127.333 799.281 127.72C799.161 128.093 799.101 128.507 799.101 128.96V130.72C799.101 131.627 799.341 132.373 799.821 132.96C800.315 133.533 801.035 133.82 801.981 133.82C803.275 133.82 804.208 133.22 804.781 132.02L805.941 132.8C805.608 133.547 805.108 134.14 804.441 134.58C803.788 135.02 802.968 135.24 801.981 135.24ZM810.498 126.08H806.978V124.68H815.618V126.08H812.098V135H810.498V126.08ZM816.635 133.6H817.775L818.435 132.08C818.582 131.733 818.762 131.473 818.975 131.3C819.189 131.113 819.429 131 819.695 130.96V130.88C818.775 130.8 818.082 130.5 817.615 129.98C817.149 129.46 816.915 128.76 816.915 127.88C816.915 126.88 817.215 126.1 817.815 125.54C818.415 124.967 819.242 124.68 820.295 124.68H824.855V135H823.255V131.04H820.575L819.495 133.58C819.255 134.14 818.989 134.52 818.695 134.72C818.415 134.907 818.095 135 817.735 135H816.635V133.6ZM823.255 129.68V126.08H820.535C819.935 126.08 819.469 126.193 819.135 126.42C818.802 126.647 818.635 127.027 818.635 127.56V128.22C818.635 128.753 818.802 129.133 819.135 129.36C819.469 129.573 819.935 129.68 820.535 129.68H823.255ZM831.445 133.6H832.805C832.978 133.36 833.132 133.073 833.265 132.74C833.398 132.407 833.512 132.007 833.605 131.54C833.698 131.073 833.772 130.52 833.825 129.88C833.878 129.24 833.905 128.487 833.905 127.62V124.68H840.885V135H839.285V126.08H835.425V127.66C835.425 128.66 835.385 129.533 835.305 130.28C835.238 131.027 835.138 131.667 835.005 132.2C834.885 132.733 834.738 133.173 834.565 133.52C834.392 133.853 834.205 134.12 834.005 134.32C833.752 134.573 833.472 134.753 833.165 134.86C832.858 134.953 832.492 135 832.065 135H831.445V133.6ZM843.374 133.6H844.514L845.174 132.08C845.32 131.733 845.5 131.473 845.714 131.3C845.927 131.113 846.167 131 846.434 130.96V130.88C845.514 130.8 844.82 130.5 844.354 129.98C843.887 129.46 843.654 128.76 843.654 127.88C843.654 126.88 843.954 126.1 844.554 125.54C845.154 124.967 845.98 124.68 847.034 124.68H851.594V135H849.994V131.04H847.314L846.234 133.58C845.994 134.14 845.727 134.52 845.434 134.72C845.154 134.907 844.834 135 844.474 135H843.374V133.6ZM849.994 129.68V126.08H847.274C846.674 126.08 846.207 126.193 845.874 126.42C845.54 126.647 845.374 127.027 845.374 127.56V128.22C845.374 128.753 845.54 129.133 845.874 129.36C846.207 129.573 846.674 129.68 847.274 129.68H849.994ZM860.757 130.26H860.657C860.337 130.62 859.944 130.92 859.477 131.16C859.01 131.387 858.397 131.5 857.637 131.5C856.584 131.5 855.764 131.24 855.177 130.72C854.59 130.187 854.297 129.387 854.297 128.32V124.68H855.897V128.18C855.897 129.433 856.637 130.06 858.117 130.06C858.877 130.06 859.504 129.96 859.997 129.76C860.504 129.547 860.757 129.227 860.757 128.8V124.68H862.357V135H860.757V130.26Z" fill="#FAFAFA"/>
<path d="M1117.7 153.68H1122.9C1123.74 153.68 1124.4 153.92 1124.88 154.4C1125.36 154.867 1125.6 155.5 1125.6 156.3C1125.6 157.593 1124.93 158.32 1123.58 158.48V158.56C1124.38 158.627 1124.97 158.88 1125.36 159.32C1125.76 159.747 1125.96 160.28 1125.96 160.92C1125.96 161.333 1125.89 161.727 1125.76 162.1C1125.64 162.473 1125.46 162.8 1125.22 163.08C1124.98 163.36 1124.69 163.587 1124.34 163.76C1123.99 163.92 1123.6 164 1123.16 164H1117.7V153.68ZM1122.68 162.68C1123.16 162.68 1123.54 162.553 1123.82 162.3C1124.1 162.047 1124.24 161.687 1124.24 161.22V160.76C1124.24 160.293 1124.1 159.933 1123.82 159.68C1123.54 159.427 1123.16 159.3 1122.68 159.3H1119.3V162.68H1122.68ZM1122.48 158C1122.92 158 1123.26 157.893 1123.5 157.68C1123.75 157.453 1123.88 157.133 1123.88 156.72V156.28C1123.88 155.867 1123.75 155.553 1123.5 155.34C1123.26 155.113 1122.92 155 1122.48 155H1119.3V158H1122.48ZM1136.25 164C1135.65 164 1135.22 163.84 1134.95 163.52C1134.7 163.2 1134.54 162.8 1134.47 162.32H1134.37C1134.15 162.96 1133.77 163.44 1133.25 163.76C1132.73 164.08 1132.11 164.24 1131.39 164.24C1130.3 164.24 1129.45 163.96 1128.83 163.4C1128.23 162.84 1127.93 162.08 1127.93 161.12C1127.93 160.147 1128.29 159.4 1128.99 158.88C1129.71 158.36 1130.83 158.1 1132.33 158.1H1134.37V157.08C1134.37 156.347 1134.17 155.787 1133.77 155.4C1133.37 155.013 1132.76 154.82 1131.93 154.82C1131.31 154.82 1130.78 154.96 1130.35 155.24C1129.94 155.52 1129.59 155.893 1129.31 156.36L1128.35 155.46C1128.63 154.9 1129.08 154.427 1129.69 154.04C1130.31 153.64 1131.08 153.44 1132.01 153.44C1133.27 153.44 1134.24 153.747 1134.93 154.36C1135.63 154.973 1135.97 155.827 1135.97 156.92V162.6H1137.15V164H1136.25ZM1131.65 162.88C1132.05 162.88 1132.42 162.833 1132.75 162.74C1133.09 162.647 1133.37 162.513 1133.61 162.34C1133.85 162.167 1134.04 161.967 1134.17 161.74C1134.31 161.513 1134.37 161.267 1134.37 161V159.3H1132.25C1131.33 159.3 1130.66 159.433 1130.23 159.7C1129.82 159.967 1129.61 160.353 1129.61 160.86V161.28C1129.61 161.787 1129.79 162.18 1130.15 162.46C1130.53 162.74 1131.03 162.88 1131.65 162.88ZM1138.37 162.6H1139.55C1139.96 161.933 1140.29 161.1 1140.55 160.1C1140.8 159.1 1140.93 157.953 1140.93 156.66V153.68H1147.91V162.6H1149.63V166.8H1148.17V164H1139.83V166.8H1138.37V162.6ZM1146.31 162.6V155.08H1142.45V156.74C1142.45 158.113 1142.33 159.287 1142.09 160.26C1141.86 161.22 1141.59 162 1141.27 162.6H1146.31ZM1151.84 153.68H1153.4V159.4L1153.24 161.88H1153.32L1154.6 159.68L1158.72 153.68H1160.2V164H1158.64V158.28L1158.8 155.8H1158.72L1157.44 158L1153.32 164H1151.84V153.68ZM1163.6 153.68H1165.7L1168.84 159.04H1168.92L1172.04 153.68H1174.12V164H1172.56V155.6H1172.46L1171.88 156.72L1168.86 161.84L1165.84 156.72L1165.26 155.6H1165.16V164H1163.6V153.68ZM1186.23 164.24C1185.51 164.24 1184.86 164.12 1184.29 163.88C1183.72 163.64 1183.23 163.267 1182.83 162.76C1182.43 162.253 1182.12 161.6 1181.89 160.8C1181.68 159.987 1181.57 159.007 1181.57 157.86C1181.57 156.38 1181.66 155.113 1181.85 154.06C1182.05 153.007 1182.36 152.14 1182.79 151.46C1183.22 150.78 1183.76 150.273 1184.41 149.94C1185.08 149.593 1185.88 149.38 1186.83 149.3L1190.07 149.04V150.66L1186.63 150.94C1186.04 150.993 1185.55 151.107 1185.15 151.28C1184.75 151.453 1184.42 151.727 1184.15 152.1C1183.9 152.46 1183.7 152.94 1183.55 153.54C1183.42 154.14 1183.32 154.887 1183.25 155.78H1183.33C1183.64 155.073 1184.03 154.547 1184.51 154.2C1185 153.853 1185.65 153.68 1186.45 153.68C1187.1 153.68 1187.7 153.8 1188.25 154.04C1188.8 154.28 1189.26 154.627 1189.65 155.08C1190.04 155.52 1190.34 156.073 1190.55 156.74C1190.78 157.393 1190.89 158.14 1190.89 158.98C1190.89 159.767 1190.78 160.48 1190.55 161.12C1190.32 161.76 1190 162.313 1189.59 162.78C1189.18 163.247 1188.68 163.607 1188.11 163.86C1187.55 164.113 1186.92 164.24 1186.23 164.24ZM1186.31 162.82C1186.72 162.82 1187.1 162.753 1187.45 162.62C1187.8 162.487 1188.1 162.287 1188.35 162.02C1188.6 161.753 1188.8 161.427 1188.95 161.04C1189.1 160.653 1189.17 160.2 1189.17 159.68V158.42C1189.17 157.3 1188.9 156.467 1188.35 155.92C1187.8 155.373 1187.07 155.1 1186.15 155.1C1185.19 155.1 1184.47 155.34 1183.99 155.82C1183.52 156.287 1183.29 156.9 1183.29 157.66V159.5C1183.29 160.62 1183.56 161.453 1184.11 162C1184.66 162.547 1185.39 162.82 1186.31 162.82ZM1199.8 153.68H1201.38L1196.76 166.4C1196.64 166.707 1196.52 166.96 1196.4 167.16C1196.28 167.373 1196.14 167.54 1195.96 167.66C1195.79 167.78 1195.57 167.867 1195.3 167.92C1195.05 167.973 1194.74 168 1194.36 168H1193.54V166.6H1195.16L1195.94 164.4L1192.08 153.68H1193.68L1196.16 160.7L1196.64 162.38H1196.74L1197.3 160.7L1199.8 153.68ZM1201.57 162.6H1202.93C1203.1 162.36 1203.26 162.073 1203.39 161.74C1203.52 161.407 1203.64 161.007 1203.73 160.54C1203.82 160.073 1203.9 159.52 1203.95 158.88C1204 158.24 1204.03 157.487 1204.03 156.62V153.68H1211.01V164H1209.41V155.08H1205.55V156.66C1205.55 157.66 1205.51 158.533 1205.43 159.28C1205.36 160.027 1205.26 160.667 1205.13 161.2C1205.01 161.733 1204.86 162.173 1204.69 162.52C1204.52 162.853 1204.33 163.12 1204.13 163.32C1203.88 163.573 1203.6 163.753 1203.29 163.86C1202.98 163.953 1202.62 164 1202.19 164H1201.57V162.6ZM1214.42 153.68H1220.94V155.08H1216.02V164H1214.42V153.68ZM1230.32 164C1229.72 164 1229.28 163.84 1229.02 163.52C1228.76 163.2 1228.6 162.8 1228.54 162.32H1228.44C1228.21 162.96 1227.84 163.44 1227.32 163.76C1226.8 164.08 1226.18 164.24 1225.46 164.24C1224.36 164.24 1223.51 163.96 1222.9 163.4C1222.3 162.84 1222 162.08 1222 161.12C1222 160.147 1222.35 159.4 1223.06 158.88C1223.78 158.36 1224.89 158.1 1226.4 158.1H1228.44V157.08C1228.44 156.347 1228.24 155.787 1227.84 155.4C1227.44 155.013 1226.82 154.82 1226 154.82C1225.37 154.82 1224.84 154.96 1224.42 155.24C1224 155.52 1223.66 155.893 1223.38 156.36L1222.42 155.46C1222.7 154.9 1223.14 154.427 1223.76 154.04C1224.37 153.64 1225.14 153.44 1226.08 153.44C1227.33 153.44 1228.3 153.747 1229 154.36C1229.69 154.973 1230.04 155.827 1230.04 156.92V162.6H1231.22V164H1230.32ZM1225.72 162.88C1226.12 162.88 1226.48 162.833 1226.82 162.74C1227.15 162.647 1227.44 162.513 1227.68 162.34C1227.92 162.167 1228.1 161.967 1228.24 161.74C1228.37 161.513 1228.44 161.267 1228.44 161V159.3H1226.32C1225.4 159.3 1224.72 159.433 1224.3 159.7C1223.88 159.967 1223.68 160.353 1223.68 160.86V161.28C1223.68 161.787 1223.86 162.18 1224.22 162.46C1224.59 162.74 1225.09 162.88 1225.72 162.88ZM1233.5 153.68H1235.1V158H1237.16L1239.16 154.84C1239.31 154.6 1239.45 154.407 1239.58 154.26C1239.71 154.1 1239.85 153.98 1239.98 153.9C1240.11 153.82 1240.25 153.767 1240.4 153.74C1240.55 153.7 1240.71 153.68 1240.9 153.68H1241.84V155.08H1240.6L1238.98 157.64C1238.87 157.813 1238.78 157.953 1238.7 158.06C1238.62 158.167 1238.54 158.26 1238.46 158.34C1238.38 158.407 1238.29 158.467 1238.2 158.52C1238.11 158.56 1237.99 158.6 1237.86 158.64V158.72C1238.14 158.76 1238.38 158.853 1238.58 159C1238.79 159.133 1239.01 159.4 1239.24 159.8L1240.82 162.6H1242V164H1240.84C1240.49 164 1240.17 163.913 1239.88 163.74C1239.6 163.553 1239.33 163.22 1239.06 162.74L1237.16 159.36H1235.1V164H1233.5V153.68ZM1248.08 164.24C1247.39 164.24 1246.76 164.113 1246.18 163.86C1245.61 163.607 1245.12 163.247 1244.7 162.78C1244.3 162.3 1243.99 161.733 1243.76 161.08C1243.54 160.413 1243.42 159.667 1243.42 158.84C1243.42 158.027 1243.54 157.287 1243.76 156.62C1243.99 155.953 1244.3 155.387 1244.7 154.92C1245.12 154.44 1245.61 154.073 1246.18 153.82C1246.76 153.567 1247.39 153.44 1248.08 153.44C1248.78 153.44 1249.4 153.567 1249.96 153.82C1250.54 154.073 1251.03 154.44 1251.44 154.92C1251.86 155.387 1252.18 155.953 1252.4 156.62C1252.63 157.287 1252.74 158.027 1252.74 158.84C1252.74 159.667 1252.63 160.413 1252.4 161.08C1252.18 161.733 1251.86 162.3 1251.44 162.78C1251.03 163.247 1250.54 163.607 1249.96 163.86C1249.4 164.113 1248.78 164.24 1248.08 164.24ZM1248.08 162.82C1248.95 162.82 1249.66 162.553 1250.2 162.02C1250.75 161.487 1251.02 160.673 1251.02 159.58V158.1C1251.02 157.007 1250.75 156.193 1250.2 155.66C1249.66 155.127 1248.95 154.86 1248.08 154.86C1247.22 154.86 1246.51 155.127 1245.96 155.66C1245.42 156.193 1245.14 157.007 1245.14 158.1V159.58C1245.14 160.673 1245.42 161.487 1245.96 162.02C1246.51 162.553 1247.22 162.82 1248.08 162.82ZM1255.38 153.68H1260.58C1261.42 153.68 1262.08 153.92 1262.56 154.4C1263.04 154.867 1263.28 155.5 1263.28 156.3C1263.28 157.593 1262.6 158.32 1261.26 158.48V158.56C1262.06 158.627 1262.65 158.88 1263.04 159.32C1263.44 159.747 1263.64 160.28 1263.64 160.92C1263.64 161.333 1263.57 161.727 1263.44 162.1C1263.32 162.473 1263.14 162.8 1262.9 163.08C1262.66 163.36 1262.36 163.587 1262.02 163.76C1261.67 163.92 1261.28 164 1260.84 164H1255.38V153.68ZM1260.36 162.68C1260.84 162.68 1261.22 162.553 1261.5 162.3C1261.78 162.047 1261.92 161.687 1261.92 161.22V160.76C1261.92 160.293 1261.78 159.933 1261.5 159.68C1261.22 159.427 1260.84 159.3 1260.36 159.3H1256.98V162.68H1260.36ZM1260.16 158C1260.6 158 1260.94 157.893 1261.18 157.68C1261.43 157.453 1261.56 157.133 1261.56 156.72V156.28C1261.56 155.867 1261.43 155.553 1261.18 155.34C1260.94 155.113 1260.6 155 1260.16 155H1256.98V158H1260.16Z" fill="#FAFAFA"/>
<path d="M774.16 163.6H775.34C775.753 162.933 776.087 162.1 776.34 161.1C776.593 160.1 776.72 158.953 776.72 157.66V154.68H783.7V163.6H785.42V167.8H783.96V165H775.62V167.8H774.16V163.6ZM782.1 163.6V156.08H778.24V157.74C778.24 159.113 778.12 160.287 777.88 161.26C777.653 162.22 777.38 163 777.06 163.6H782.1ZM795.134 165C794.534 165 794.1 164.84 793.834 164.52C793.58 164.2 793.42 163.8 793.354 163.32H793.254C793.027 163.96 792.654 164.44 792.134 164.76C791.614 165.08 790.994 165.24 790.274 165.24C789.18 165.24 788.327 164.96 787.714 164.4C787.114 163.84 786.814 163.08 786.814 162.12C786.814 161.147 787.167 160.4 787.874 159.88C788.594 159.36 789.707 159.1 791.214 159.1H793.254V158.08C793.254 157.347 793.054 156.787 792.654 156.4C792.254 156.013 791.64 155.82 790.814 155.82C790.187 155.82 789.66 155.96 789.234 156.24C788.82 156.52 788.474 156.893 788.194 157.36L787.234 156.46C787.514 155.9 787.96 155.427 788.574 155.04C789.187 154.64 789.96 154.44 790.894 154.44C792.147 154.44 793.12 154.747 793.814 155.36C794.507 155.973 794.854 156.827 794.854 157.92V163.6H796.034V165H795.134ZM790.534 163.88C790.934 163.88 791.3 163.833 791.634 163.74C791.967 163.647 792.254 163.513 792.494 163.34C792.734 163.167 792.92 162.967 793.054 162.74C793.187 162.513 793.254 162.267 793.254 162V160.3H791.134C790.214 160.3 789.54 160.433 789.114 160.7C788.7 160.967 788.494 161.353 788.494 161.86V162.28C788.494 162.787 788.674 163.18 789.034 163.46C789.407 163.74 789.907 163.88 790.534 163.88ZM798.317 154.68H799.917V163.6H803.797V154.68H805.397V163.6H809.277V154.68H810.877V165H798.317V154.68ZM821.774 165C821.174 165 820.741 164.84 820.474 164.52C820.221 164.2 820.061 163.8 819.994 163.32H819.894C819.668 163.96 819.294 164.44 818.774 164.76C818.254 165.08 817.634 165.24 816.914 165.24C815.821 165.24 814.968 164.96 814.354 164.4C813.754 163.84 813.454 163.08 813.454 162.12C813.454 161.147 813.808 160.4 814.514 159.88C815.234 159.36 816.348 159.1 817.854 159.1H819.894V158.08C819.894 157.347 819.694 156.787 819.294 156.4C818.894 156.013 818.281 155.82 817.454 155.82C816.828 155.82 816.301 155.96 815.874 156.24C815.461 156.52 815.114 156.893 814.834 157.36L813.874 156.46C814.154 155.9 814.601 155.427 815.214 155.04C815.828 154.64 816.601 154.44 817.534 154.44C818.788 154.44 819.761 154.747 820.454 155.36C821.148 155.973 821.494 156.827 821.494 157.92V163.6H822.674V165H821.774ZM817.174 163.88C817.574 163.88 817.941 163.833 818.274 163.74C818.608 163.647 818.894 163.513 819.134 163.34C819.374 163.167 819.561 162.967 819.694 162.74C819.828 162.513 819.894 162.267 819.894 162V160.3H817.774C816.854 160.3 816.181 160.433 815.754 160.7C815.341 160.967 815.134 161.353 815.134 161.86V162.28C815.134 162.787 815.314 163.18 815.674 163.46C816.048 163.74 816.548 163.88 817.174 163.88ZM828.144 163.6H829.504C829.678 163.36 829.831 163.073 829.964 162.74C830.098 162.407 830.211 162.007 830.304 161.54C830.398 161.073 830.471 160.52 830.524 159.88C830.578 159.24 830.604 158.487 830.604 157.62V154.68H837.584V165H835.984V156.08H832.124V157.66C832.124 158.66 832.084 159.533 832.004 160.28C831.938 161.027 831.838 161.667 831.704 162.2C831.584 162.733 831.438 163.173 831.264 163.52C831.091 163.853 830.904 164.12 830.704 164.32C830.451 164.573 830.171 164.753 829.864 164.86C829.558 164.953 829.191 165 828.764 165H828.144V163.6ZM849.453 165.24C848.146 165.24 847.086 164.813 846.273 163.96C845.473 163.107 845.026 161.907 844.933 160.36H842.593V165H840.993V154.68H842.593V159H844.973C845.106 157.547 845.566 156.427 846.353 155.64C847.153 154.84 848.186 154.44 849.453 154.44C850.133 154.44 850.753 154.567 851.313 154.82C851.873 155.06 852.346 155.413 852.733 155.88C853.133 156.333 853.44 156.893 853.653 157.56C853.866 158.227 853.973 158.987 853.973 159.84C853.973 160.693 853.866 161.453 853.653 162.12C853.44 162.787 853.133 163.353 852.733 163.82C852.346 164.273 851.873 164.627 851.313 164.88C850.753 165.12 850.133 165.24 849.453 165.24ZM849.453 163.82C850.306 163.82 850.986 163.567 851.493 163.06C852 162.553 852.253 161.727 852.253 160.58V159.1C852.253 157.953 852 157.127 851.493 156.62C850.986 156.113 850.306 155.86 849.453 155.86C848.6 155.86 847.92 156.113 847.413 156.62C846.906 157.127 846.653 157.953 846.653 159.1V160.58C846.653 161.727 846.906 162.553 847.413 163.06C847.92 163.567 848.6 163.82 849.453 163.82ZM860.696 165.24C859.976 165.24 859.329 165.12 858.756 164.88C858.182 164.64 857.696 164.267 857.296 163.76C856.896 163.253 856.582 162.6 856.356 161.8C856.142 160.987 856.036 160.007 856.036 158.86C856.036 157.38 856.129 156.113 856.316 155.06C856.516 154.007 856.829 153.14 857.256 152.46C857.682 151.78 858.222 151.273 858.876 150.94C859.542 150.593 860.349 150.38 861.296 150.3L864.536 150.04V151.66L861.096 151.94C860.509 151.993 860.016 152.107 859.616 152.28C859.216 152.453 858.882 152.727 858.616 153.1C858.362 153.46 858.162 153.94 858.016 154.54C857.882 155.14 857.782 155.887 857.716 156.78H857.796C858.102 156.073 858.496 155.547 858.976 155.2C859.469 154.853 860.116 154.68 860.916 154.68C861.569 154.68 862.169 154.8 862.716 155.04C863.262 155.28 863.729 155.627 864.116 156.08C864.502 156.52 864.802 157.073 865.016 157.74C865.242 158.393 865.356 159.14 865.356 159.98C865.356 160.767 865.242 161.48 865.016 162.12C864.789 162.76 864.469 163.313 864.056 163.78C863.642 164.247 863.149 164.607 862.576 164.86C862.016 165.113 861.389 165.24 860.696 165.24ZM860.776 163.82C861.189 163.82 861.569 163.753 861.916 163.62C862.262 163.487 862.562 163.287 862.816 163.02C863.069 162.753 863.269 162.427 863.416 162.04C863.562 161.653 863.636 161.2 863.636 160.68V159.42C863.636 158.3 863.362 157.467 862.816 156.92C862.269 156.373 861.536 156.1 860.616 156.1C859.656 156.1 858.936 156.34 858.456 156.82C857.989 157.287 857.756 157.9 857.756 158.66V160.5C857.756 161.62 858.029 162.453 858.576 163C859.122 163.547 859.856 163.82 860.776 163.82ZM868.005 154.68H869.565V160.4L869.405 162.88H869.485L870.765 160.68L874.885 154.68H876.365V165H874.805V159.28L874.965 156.8H874.885L873.605 159L869.485 165H868.005V154.68ZM879.763 154.68H884.963C885.803 154.68 886.463 154.92 886.943 155.4C887.423 155.867 887.663 156.5 887.663 157.3C887.663 158.593 886.989 159.32 885.643 159.48V159.56C886.443 159.627 887.036 159.88 887.423 160.32C887.823 160.747 888.023 161.28 888.023 161.92C888.023 162.333 887.956 162.727 887.823 163.1C887.703 163.473 887.523 163.8 887.283 164.08C887.043 164.36 886.749 164.587 886.403 164.76C886.056 164.92 885.663 165 885.223 165H879.763V154.68ZM884.743 163.68C885.223 163.68 885.603 163.553 885.883 163.3C886.163 163.047 886.303 162.687 886.303 162.22V161.76C886.303 161.293 886.163 160.933 885.883 160.68C885.603 160.427 885.223 160.3 884.743 160.3H881.363V163.68H884.743ZM884.543 159C884.983 159 885.323 158.893 885.563 158.68C885.816 158.453 885.943 158.133 885.943 157.72V157.28C885.943 156.867 885.816 156.553 885.563 156.34C885.323 156.113 884.983 156 884.543 156H881.363V159H884.543ZM898.317 165C897.717 165 897.284 164.84 897.017 164.52C896.764 164.2 896.604 163.8 896.537 163.32H896.437C896.211 163.96 895.837 164.44 895.317 164.76C894.797 165.08 894.177 165.24 893.457 165.24C892.364 165.24 891.511 164.96 890.897 164.4C890.297 163.84 889.997 163.08 889.997 162.12C889.997 161.147 890.351 160.4 891.057 159.88C891.777 159.36 892.891 159.1 894.397 159.1H896.437V158.08C896.437 157.347 896.237 156.787 895.837 156.4C895.437 156.013 894.824 155.82 893.997 155.82C893.371 155.82 892.844 155.96 892.417 156.24C892.004 156.52 891.657 156.893 891.377 157.36L890.417 156.46C890.697 155.9 891.144 155.427 891.757 155.04C892.371 154.64 893.144 154.44 894.077 154.44C895.331 154.44 896.304 154.747 896.997 155.36C897.691 155.973 898.037 156.827 898.037 157.92V163.6H899.217V165H898.317ZM893.717 163.88C894.117 163.88 894.484 163.833 894.817 163.74C895.151 163.647 895.437 163.513 895.677 163.34C895.917 163.167 896.104 162.967 896.237 162.74C896.371 162.513 896.437 162.267 896.437 162V160.3H894.317C893.397 160.3 892.724 160.433 892.297 160.7C891.884 160.967 891.677 161.353 891.677 161.86V162.28C891.677 162.787 891.857 163.18 892.217 163.46C892.591 163.74 893.091 163.88 893.717 163.88ZM900.581 163.6H901.721L902.381 162.08C902.527 161.733 902.707 161.473 902.921 161.3C903.134 161.113 903.374 161 903.641 160.96V160.88C902.721 160.8 902.027 160.5 901.561 159.98C901.094 159.46 900.861 158.76 900.861 157.88C900.861 156.88 901.161 156.1 901.761 155.54C902.361 154.967 903.187 154.68 904.241 154.68H908.801V165H907.201V161.04H904.521L903.441 163.58C903.201 164.14 902.934 164.52 902.641 164.72C902.361 164.907 902.041 165 901.681 165H900.581V163.6ZM907.201 159.68V156.08H904.481C903.881 156.08 903.414 156.193 903.081 156.42C902.747 156.647 902.581 157.027 902.581 157.56V158.22C902.581 158.753 902.747 159.133 903.081 159.36C903.414 159.573 903.881 159.68 904.481 159.68H907.201Z" fill="#FAFAFA"/>
<path d="M1116.16 193.6H1117.34C1117.75 192.933 1118.09 192.1 1118.34 191.1C1118.59 190.1 1118.72 188.953 1118.72 187.66V184.68H1125.7V193.6H1127.42V197.8H1125.96V195H1117.62V197.8H1116.16V193.6ZM1124.1 193.6V186.08H1120.24V187.74C1120.24 189.113 1120.12 190.287 1119.88 191.26C1119.65 192.22 1119.38 193 1119.06 193.6H1124.1ZM1129.63 184.68H1131.73L1134.87 190.04H1134.95L1138.07 184.68H1140.15V195H1138.59V186.6H1138.49L1137.91 187.72L1134.89 192.84L1131.87 187.72L1131.29 186.6H1131.19V195H1129.63V184.68ZM1143.56 184.68H1145.12V190.4L1144.96 192.88H1145.04L1146.32 190.68L1150.44 184.68H1151.92V195H1150.36V189.28L1150.52 186.8H1150.44L1149.16 189L1145.04 195H1143.56V184.68ZM1157.54 186.08H1154.02V184.68H1162.66V186.08H1159.14V195H1157.54V186.08ZM1164.75 184.68H1166.35V186.36H1166.43C1166.7 185.707 1167.08 185.227 1167.59 184.92C1168.11 184.6 1168.73 184.44 1169.45 184.44C1170.09 184.44 1170.67 184.567 1171.19 184.82C1171.71 185.073 1172.15 185.433 1172.51 185.9C1172.88 186.367 1173.16 186.933 1173.35 187.6C1173.55 188.267 1173.65 189.013 1173.65 189.84C1173.65 190.667 1173.55 191.413 1173.35 192.08C1173.16 192.747 1172.88 193.313 1172.51 193.78C1172.15 194.247 1171.71 194.607 1171.19 194.86C1170.67 195.113 1170.09 195.24 1169.45 195.24C1168.05 195.24 1167.04 194.6 1166.43 193.32H1166.35V199H1164.75V184.68ZM1169.01 193.8C1169.92 193.8 1170.63 193.52 1171.15 192.96C1171.67 192.387 1171.93 191.64 1171.93 190.72V188.96C1171.93 188.04 1171.67 187.3 1171.15 186.74C1170.63 186.167 1169.92 185.88 1169.01 185.88C1168.65 185.88 1168.3 185.933 1167.97 186.04C1167.65 186.133 1167.37 186.267 1167.13 186.44C1166.89 186.613 1166.7 186.827 1166.55 187.08C1166.42 187.32 1166.35 187.58 1166.35 187.86V191.7C1166.35 192.033 1166.42 192.333 1166.55 192.6C1166.7 192.853 1166.89 193.073 1167.13 193.26C1167.37 193.433 1167.65 193.567 1167.97 193.66C1168.3 193.753 1168.65 193.8 1169.01 193.8ZM1176.35 184.68H1177.91V190.4L1177.75 192.88H1177.83L1179.11 190.68L1183.23 184.68H1184.71V195H1183.15V189.28L1183.31 186.8H1183.23L1181.95 189L1177.83 195H1176.35V184.68ZM1188.11 184.68H1189.67V190.4L1189.51 192.88H1189.59L1190.87 190.68L1194.99 184.68H1196.47V195H1194.91V189.28L1195.07 186.8H1194.99L1193.71 189L1189.59 195H1188.11V184.68ZM1192.33 183.08C1191.61 183.08 1191.04 182.94 1190.61 182.66C1190.18 182.367 1189.84 181.987 1189.59 181.52L1189.19 180.76L1190.59 180.14L1191.29 181.78C1191.45 181.82 1191.62 181.853 1191.81 181.88C1192 181.893 1192.17 181.9 1192.33 181.9C1192.49 181.9 1192.66 181.893 1192.85 181.88C1193.04 181.853 1193.21 181.82 1193.37 181.78L1194.07 180.14L1195.47 180.76L1195.07 181.52C1194.82 181.987 1194.48 182.367 1194.05 182.66C1193.62 182.94 1193.05 183.08 1192.33 183.08ZM1212.09 195C1211.49 195 1211.06 194.84 1210.79 194.52C1210.54 194.2 1210.38 193.8 1210.31 193.32H1210.21C1209.99 193.96 1209.61 194.44 1209.09 194.76C1208.57 195.08 1207.95 195.24 1207.23 195.24C1206.14 195.24 1205.29 194.96 1204.67 194.4C1204.07 193.84 1203.77 193.08 1203.77 192.12C1203.77 191.147 1204.13 190.4 1204.83 189.88C1205.55 189.36 1206.67 189.1 1208.17 189.1H1210.21V188.08C1210.21 187.347 1210.01 186.787 1209.61 186.4C1209.21 186.013 1208.6 185.82 1207.77 185.82C1207.15 185.82 1206.62 185.96 1206.19 186.24C1205.78 186.52 1205.43 186.893 1205.15 187.36L1204.19 186.46C1204.47 185.9 1204.92 185.427 1205.53 185.04C1206.15 184.64 1206.92 184.44 1207.85 184.44C1209.11 184.44 1210.08 184.747 1210.77 185.36C1211.47 185.973 1211.81 186.827 1211.81 187.92V193.6H1212.99V195H1212.09ZM1207.49 193.88C1207.89 193.88 1208.26 193.833 1208.59 193.74C1208.93 193.647 1209.21 193.513 1209.45 193.34C1209.69 193.167 1209.88 192.967 1210.01 192.74C1210.15 192.513 1210.21 192.267 1210.21 192V190.3H1208.09C1207.17 190.3 1206.5 190.433 1206.07 190.7C1205.66 190.967 1205.45 191.353 1205.45 191.86V192.28C1205.45 192.787 1205.63 193.18 1205.99 193.46C1206.37 193.74 1206.87 193.88 1207.49 193.88ZM1213.93 193.6H1215.29C1215.47 193.36 1215.62 193.073 1215.75 192.74C1215.89 192.407 1216 192.007 1216.09 191.54C1216.19 191.073 1216.26 190.52 1216.31 189.88C1216.37 189.24 1216.39 188.487 1216.39 187.62V184.68H1223.37V195H1221.77V186.08H1217.91V187.66C1217.91 188.66 1217.87 189.533 1217.79 190.28C1217.73 191.027 1217.63 191.667 1217.49 192.2C1217.37 192.733 1217.23 193.173 1217.05 193.52C1216.88 193.853 1216.69 194.12 1216.49 194.32C1216.24 194.573 1215.96 194.753 1215.65 194.86C1215.35 194.953 1214.98 195 1214.55 195H1213.93V193.6ZM1230.66 195.24C1229.96 195.24 1229.32 195.113 1228.74 194.86C1228.18 194.607 1227.7 194.247 1227.28 193.78C1226.88 193.3 1226.57 192.733 1226.34 192.08C1226.13 191.413 1226.02 190.667 1226.02 189.84C1226.02 189.027 1226.13 188.287 1226.34 187.62C1226.57 186.953 1226.88 186.387 1227.28 185.92C1227.7 185.44 1228.18 185.073 1228.74 184.82C1229.32 184.567 1229.96 184.44 1230.66 184.44C1231.36 184.44 1231.98 184.567 1232.52 184.82C1233.07 185.073 1233.54 185.427 1233.92 185.88C1234.31 186.32 1234.6 186.847 1234.8 187.46C1235.02 188.073 1235.12 188.747 1235.12 189.48V190.24H1227.7V190.72C1227.7 191.16 1227.77 191.573 1227.9 191.96C1228.05 192.333 1228.25 192.66 1228.5 192.94C1228.77 193.22 1229.09 193.44 1229.46 193.6C1229.85 193.76 1230.28 193.84 1230.76 193.84C1231.42 193.84 1231.98 193.687 1232.46 193.38C1232.96 193.073 1233.34 192.633 1233.6 192.06L1234.74 192.88C1234.41 193.587 1233.89 194.16 1233.18 194.6C1232.48 195.027 1231.64 195.24 1230.66 195.24ZM1230.66 185.78C1230.22 185.78 1229.82 185.86 1229.46 186.02C1229.1 186.167 1228.79 186.38 1228.52 186.66C1228.27 186.94 1228.07 187.273 1227.92 187.66C1227.78 188.033 1227.7 188.447 1227.7 188.9V189.04H1233.4V188.82C1233.4 187.9 1233.15 187.167 1232.64 186.62C1232.15 186.06 1231.49 185.78 1230.66 185.78ZM1237.76 184.68H1239.36V189H1241.42L1243.42 185.84C1243.57 185.6 1243.71 185.407 1243.84 185.26C1243.97 185.1 1244.11 184.98 1244.24 184.9C1244.37 184.82 1244.51 184.767 1244.66 184.74C1244.81 184.7 1244.97 184.68 1245.16 184.68H1246.1V186.08H1244.86L1243.24 188.64C1243.13 188.813 1243.04 188.953 1242.96 189.06C1242.88 189.167 1242.8 189.26 1242.72 189.34C1242.64 189.407 1242.55 189.467 1242.46 189.52C1242.37 189.56 1242.25 189.6 1242.12 189.64V189.72C1242.4 189.76 1242.64 189.853 1242.84 190C1243.05 190.133 1243.27 190.4 1243.5 190.8L1245.08 193.6H1246.26V195H1245.1C1244.75 195 1244.43 194.913 1244.14 194.74C1243.86 194.553 1243.59 194.22 1243.32 193.74L1241.42 190.36H1239.36V195H1237.76V184.68ZM1252.28 195.24C1251.56 195.24 1250.92 195.113 1250.34 194.86C1249.77 194.607 1249.28 194.247 1248.88 193.78C1248.5 193.313 1248.2 192.747 1247.98 192.08C1247.78 191.413 1247.68 190.667 1247.68 189.84C1247.68 189.013 1247.78 188.267 1247.98 187.6C1248.2 186.933 1248.5 186.367 1248.88 185.9C1249.28 185.433 1249.77 185.073 1250.34 184.82C1250.92 184.567 1251.56 184.44 1252.28 184.44C1253.31 184.44 1254.13 184.667 1254.74 185.12C1255.37 185.56 1255.84 186.14 1256.14 186.86L1254.8 187.54C1254.62 187.007 1254.31 186.593 1253.88 186.3C1253.46 186.007 1252.92 185.86 1252.28 185.86C1251.8 185.86 1251.38 185.94 1251.02 186.1C1250.66 186.247 1250.36 186.46 1250.12 186.74C1249.88 187.007 1249.7 187.333 1249.58 187.72C1249.46 188.093 1249.4 188.507 1249.4 188.96V190.72C1249.4 191.627 1249.64 192.373 1250.12 192.96C1250.62 193.533 1251.34 193.82 1252.28 193.82C1253.58 193.82 1254.51 193.22 1255.08 192.02L1256.24 192.8C1255.91 193.547 1255.41 194.14 1254.74 194.58C1254.09 195.02 1253.27 195.24 1252.28 195.24ZM1266 195C1265.4 195 1264.97 194.84 1264.7 194.52C1264.45 194.2 1264.29 193.8 1264.22 193.32H1264.12C1263.89 193.96 1263.52 194.44 1263 194.76C1262.48 195.08 1261.86 195.24 1261.14 195.24C1260.05 195.24 1259.19 194.96 1258.58 194.4C1257.98 193.84 1257.68 193.08 1257.68 192.12C1257.68 191.147 1258.03 190.4 1258.74 189.88C1259.46 189.36 1260.57 189.1 1262.08 189.1H1264.12V188.08C1264.12 187.347 1263.92 186.787 1263.52 186.4C1263.12 186.013 1262.51 185.82 1261.68 185.82C1261.05 185.82 1260.53 185.96 1260.1 186.24C1259.69 186.52 1259.34 186.893 1259.06 187.36L1258.1 186.46C1258.38 185.9 1258.83 185.427 1259.44 185.04C1260.05 184.64 1260.83 184.44 1261.76 184.44C1263.01 184.44 1263.99 184.747 1264.68 185.36C1265.37 185.973 1265.72 186.827 1265.72 187.92V193.6H1266.9V195H1266ZM1261.4 193.88C1261.8 193.88 1262.17 193.833 1262.5 193.74C1262.83 193.647 1263.12 193.513 1263.36 193.34C1263.6 193.167 1263.79 192.967 1263.92 192.74C1264.05 192.513 1264.12 192.267 1264.12 192V190.3H1262C1261.08 190.3 1260.41 190.433 1259.98 190.7C1259.57 190.967 1259.36 191.353 1259.36 191.86V192.28C1259.36 192.787 1259.54 193.18 1259.9 193.46C1260.27 193.74 1260.77 193.88 1261.4 193.88ZM1269.18 184.68H1270.78V188.98H1275.94V184.68H1277.54V195H1275.94V190.38H1270.78V195H1269.18V184.68ZM1279.4 193.6H1280.58C1281 192.933 1281.33 192.1 1281.58 191.1C1281.84 190.1 1281.96 188.953 1281.96 187.66V184.68H1288.94V193.6H1290.66V197.8H1289.2V195H1280.86V197.8H1279.4V193.6ZM1287.34 193.6V186.08H1283.48V187.74C1283.48 189.113 1283.36 190.287 1283.12 191.26C1282.9 192.22 1282.62 193 1282.3 193.6H1287.34ZM1292.88 184.68H1294.48V186.36H1294.56C1294.82 185.707 1295.21 185.227 1295.72 184.92C1296.24 184.6 1296.86 184.44 1297.58 184.44C1298.22 184.44 1298.8 184.567 1299.32 184.82C1299.84 185.073 1300.28 185.433 1300.64 185.9C1301.01 186.367 1301.29 186.933 1301.48 187.6C1301.68 188.267 1301.78 189.013 1301.78 189.84C1301.78 190.667 1301.68 191.413 1301.48 192.08C1301.29 192.747 1301.01 193.313 1300.64 193.78C1300.28 194.247 1299.84 194.607 1299.32 194.86C1298.8 195.113 1298.22 195.24 1297.58 195.24C1296.18 195.24 1295.17 194.6 1294.56 193.32H1294.48V199H1292.88V184.68ZM1297.14 193.8C1298.04 193.8 1298.76 193.52 1299.28 192.96C1299.8 192.387 1300.06 191.64 1300.06 190.72V188.96C1300.06 188.04 1299.8 187.3 1299.28 186.74C1298.76 186.167 1298.04 185.88 1297.14 185.88C1296.78 185.88 1296.43 185.933 1296.1 186.04C1295.78 186.133 1295.5 186.267 1295.26 186.44C1295.02 186.613 1294.82 186.827 1294.68 187.08C1294.54 187.32 1294.48 187.58 1294.48 187.86V191.7C1294.48 192.033 1294.54 192.333 1294.68 192.6C1294.82 192.853 1295.02 193.073 1295.26 193.26C1295.5 193.433 1295.78 193.567 1296.1 193.66C1296.43 193.753 1296.78 193.8 1297.14 193.8ZM1308.38 195.24C1307.68 195.24 1307.05 195.113 1306.48 194.86C1305.9 194.607 1305.41 194.247 1305 193.78C1304.6 193.3 1304.28 192.733 1304.06 192.08C1303.83 191.413 1303.72 190.667 1303.72 189.84C1303.72 189.027 1303.83 188.287 1304.06 187.62C1304.28 186.953 1304.6 186.387 1305 185.92C1305.41 185.44 1305.9 185.073 1306.48 184.82C1307.05 184.567 1307.68 184.44 1308.38 184.44C1309.07 184.44 1309.7 184.567 1310.26 184.82C1310.83 185.073 1311.32 185.44 1311.74 185.92C1312.15 186.387 1312.47 186.953 1312.7 187.62C1312.92 188.287 1313.04 189.027 1313.04 189.84C1313.04 190.667 1312.92 191.413 1312.7 192.08C1312.47 192.733 1312.15 193.3 1311.74 193.78C1311.32 194.247 1310.83 194.607 1310.26 194.86C1309.7 195.113 1309.07 195.24 1308.38 195.24ZM1308.38 193.82C1309.24 193.82 1309.95 193.553 1310.5 193.02C1311.04 192.487 1311.32 191.673 1311.32 190.58V189.1C1311.32 188.007 1311.04 187.193 1310.5 186.66C1309.95 186.127 1309.24 185.86 1308.38 185.86C1307.51 185.86 1306.8 186.127 1306.26 186.66C1305.71 187.193 1305.44 188.007 1305.44 189.1V190.58C1305.44 191.673 1305.71 192.487 1306.26 193.02C1306.8 193.553 1307.51 193.82 1308.38 193.82ZM1315.67 184.68H1320.87C1321.71 184.68 1322.37 184.92 1322.85 185.4C1323.33 185.867 1323.57 186.5 1323.57 187.3C1323.57 188.593 1322.9 189.32 1321.55 189.48V189.56C1322.35 189.627 1322.94 189.88 1323.33 190.32C1323.73 190.747 1323.93 191.28 1323.93 191.92C1323.93 192.333 1323.86 192.727 1323.73 193.1C1323.61 193.473 1323.43 193.8 1323.19 194.08C1322.95 194.36 1322.66 194.587 1322.31 194.76C1321.96 194.92 1321.57 195 1321.13 195H1315.67V184.68ZM1320.65 193.68C1321.13 193.68 1321.51 193.553 1321.79 193.3C1322.07 193.047 1322.21 192.687 1322.21 192.22V191.76C1322.21 191.293 1322.07 190.933 1321.79 190.68C1321.51 190.427 1321.13 190.3 1320.65 190.3H1317.27V193.68H1320.65ZM1320.45 189C1320.89 189 1321.23 188.893 1321.47 188.68C1321.72 188.453 1321.85 188.133 1321.85 187.72V187.28C1321.85 186.867 1321.72 186.553 1321.47 186.34C1321.23 186.113 1320.89 186 1320.45 186H1317.27V189H1320.45Z" fill="#FAFAFA"/>
<path d="M779.54 196.24C778.82 196.24 778.173 196.113 777.6 195.86C777.027 195.607 776.54 195.247 776.14 194.78C775.753 194.313 775.453 193.747 775.24 193.08C775.04 192.413 774.94 191.667 774.94 190.84C774.94 190.013 775.04 189.267 775.24 188.6C775.453 187.933 775.753 187.367 776.14 186.9C776.54 186.433 777.027 186.073 777.6 185.82C778.173 185.567 778.82 185.44 779.54 185.44C780.567 185.44 781.387 185.667 782 186.12C782.627 186.56 783.093 187.14 783.4 187.86L782.06 188.54C781.873 188.007 781.567 187.593 781.14 187.3C780.713 187.007 780.18 186.86 779.54 186.86C779.06 186.86 778.64 186.94 778.28 187.1C777.92 187.247 777.62 187.46 777.38 187.74C777.14 188.007 776.96 188.333 776.84 188.72C776.72 189.093 776.66 189.507 776.66 189.96V191.72C776.66 192.627 776.9 193.373 777.38 193.96C777.873 194.533 778.593 194.82 779.54 194.82C780.833 194.82 781.767 194.22 782.34 193.02L783.5 193.8C783.167 194.547 782.667 195.14 782 195.58C781.347 196.02 780.527 196.24 779.54 196.24ZM793.259 196C792.659 196 792.225 195.84 791.959 195.52C791.705 195.2 791.545 194.8 791.479 194.32H791.379C791.152 194.96 790.779 195.44 790.259 195.76C789.739 196.08 789.119 196.24 788.399 196.24C787.305 196.24 786.452 195.96 785.839 195.4C785.239 194.84 784.939 194.08 784.939 193.12C784.939 192.147 785.292 191.4 785.999 190.88C786.719 190.36 787.832 190.1 789.339 190.1H791.379V189.08C791.379 188.347 791.179 187.787 790.779 187.4C790.379 187.013 789.765 186.82 788.939 186.82C788.312 186.82 787.785 186.96 787.359 187.24C786.945 187.52 786.599 187.893 786.319 188.36L785.359 187.46C785.639 186.9 786.085 186.427 786.699 186.04C787.312 185.64 788.085 185.44 789.019 185.44C790.272 185.44 791.245 185.747 791.939 186.36C792.632 186.973 792.979 187.827 792.979 188.92V194.6H794.159V196H793.259ZM788.659 194.88C789.059 194.88 789.425 194.833 789.759 194.74C790.092 194.647 790.379 194.513 790.619 194.34C790.859 194.167 791.045 193.967 791.179 193.74C791.312 193.513 791.379 193.267 791.379 193V191.3H789.259C788.339 191.3 787.665 191.433 787.239 191.7C786.825 191.967 786.619 192.353 786.619 192.86V193.28C786.619 193.787 786.799 194.18 787.159 194.46C787.532 194.74 788.032 194.88 788.659 194.88ZM796.442 185.68H798.042V194.6H801.922V185.68H803.522V194.6H807.402V185.68H809.002V196H796.442V185.68ZM819.899 196C819.299 196 818.866 195.84 818.599 195.52C818.346 195.2 818.186 194.8 818.119 194.32H818.019C817.793 194.96 817.419 195.44 816.899 195.76C816.379 196.08 815.759 196.24 815.039 196.24C813.946 196.24 813.093 195.96 812.479 195.4C811.879 194.84 811.579 194.08 811.579 193.12C811.579 192.147 811.933 191.4 812.639 190.88C813.359 190.36 814.473 190.1 815.979 190.1H818.019V189.08C818.019 188.347 817.819 187.787 817.419 187.4C817.019 187.013 816.406 186.82 815.579 186.82C814.953 186.82 814.426 186.96 813.999 187.24C813.586 187.52 813.239 187.893 812.959 188.36L811.999 187.46C812.279 186.9 812.726 186.427 813.339 186.04C813.953 185.64 814.726 185.44 815.659 185.44C816.913 185.44 817.886 185.747 818.579 186.36C819.273 186.973 819.619 187.827 819.619 188.92V194.6H820.799V196H819.899ZM815.299 194.88C815.699 194.88 816.066 194.833 816.399 194.74C816.733 194.647 817.019 194.513 817.259 194.34C817.499 194.167 817.686 193.967 817.819 193.74C817.953 193.513 818.019 193.267 818.019 193V191.3H815.899C814.979 191.3 814.306 191.433 813.879 191.7C813.466 191.967 813.259 192.353 813.259 192.86V193.28C813.259 193.787 813.439 194.18 813.799 194.46C814.173 194.74 814.673 194.88 815.299 194.88ZM830.729 196.24C829.676 196.24 828.836 196.06 828.209 195.7C827.583 195.34 827.069 194.827 826.669 194.16L827.869 193.2C828.136 193.707 828.503 194.107 828.969 194.4C829.449 194.68 830.036 194.82 830.729 194.82C831.569 194.82 832.189 194.667 832.589 194.36C833.003 194.053 833.209 193.66 833.209 193.18V192.94C833.209 192.42 833.029 192.027 832.669 191.76C832.323 191.48 831.829 191.34 831.189 191.34H828.989V190H830.989C831.629 190 832.123 189.873 832.469 189.62C832.816 189.367 832.989 189.007 832.989 188.54V188.3C832.989 187.86 832.809 187.513 832.449 187.26C832.103 186.993 831.516 186.86 830.689 186.86C830.009 186.86 829.449 187 829.009 187.28C828.569 187.547 828.216 187.913 827.949 188.38L826.889 187.48C827.209 186.88 827.676 186.393 828.289 186.02C828.916 185.633 829.743 185.44 830.769 185.44C832.116 185.44 833.109 185.687 833.749 186.18C834.389 186.673 834.709 187.353 834.709 188.22C834.709 188.86 834.536 189.367 834.189 189.74C833.856 190.113 833.369 190.373 832.729 190.52V190.6C833.463 190.707 834.009 190.973 834.369 191.4C834.743 191.813 834.929 192.347 834.929 193C834.929 194 834.549 194.793 833.789 195.38C833.043 195.953 832.023 196.24 830.729 196.24ZM841.709 196.24C841.002 196.24 840.362 196.113 839.789 195.86C839.229 195.607 838.742 195.247 838.329 194.78C837.929 194.3 837.616 193.733 837.389 193.08C837.176 192.413 837.069 191.667 837.069 190.84C837.069 190.027 837.176 189.287 837.389 188.62C837.616 187.953 837.929 187.387 838.329 186.92C838.742 186.44 839.229 186.073 839.789 185.82C840.362 185.567 841.002 185.44 841.709 185.44C842.402 185.44 843.022 185.567 843.569 185.82C844.116 186.073 844.582 186.427 844.969 186.88C845.356 187.32 845.649 187.847 845.849 188.46C846.062 189.073 846.169 189.747 846.169 190.48V191.24H838.749V191.72C838.749 192.16 838.816 192.573 838.949 192.96C839.096 193.333 839.296 193.66 839.549 193.94C839.816 194.22 840.136 194.44 840.509 194.6C840.896 194.76 841.329 194.84 841.809 194.84C842.462 194.84 843.029 194.687 843.509 194.38C844.002 194.073 844.382 193.633 844.649 193.06L845.789 193.88C845.456 194.587 844.936 195.16 844.229 195.6C843.522 196.027 842.682 196.24 841.709 196.24ZM841.709 186.78C841.269 186.78 840.869 186.86 840.509 187.02C840.149 187.167 839.836 187.38 839.569 187.66C839.316 187.94 839.116 188.273 838.969 188.66C838.822 189.033 838.749 189.447 838.749 189.9V190.04H844.449V189.82C844.449 188.9 844.196 188.167 843.689 187.62C843.196 187.06 842.536 186.78 841.709 186.78ZM847.265 194.6H848.625C848.799 194.36 848.952 194.073 849.085 193.74C849.219 193.407 849.332 193.007 849.425 192.54C849.519 192.073 849.592 191.52 849.645 190.88C849.699 190.24 849.725 189.487 849.725 188.62V185.68H856.705V196H855.105V187.08H851.245V188.66C851.245 189.66 851.205 190.533 851.125 191.28C851.059 192.027 850.959 192.667 850.825 193.2C850.705 193.733 850.559 194.173 850.385 194.52C850.212 194.853 850.025 195.12 849.825 195.32C849.572 195.573 849.292 195.753 848.985 195.86C848.679 195.953 848.312 196 847.885 196H847.265V194.6ZM863.994 196.24C863.287 196.24 862.647 196.113 862.074 195.86C861.514 195.607 861.027 195.247 860.614 194.78C860.214 194.3 859.901 193.733 859.674 193.08C859.461 192.413 859.354 191.667 859.354 190.84C859.354 190.027 859.461 189.287 859.674 188.62C859.901 187.953 860.214 187.387 860.614 186.92C861.027 186.44 861.514 186.073 862.074 185.82C862.647 185.567 863.287 185.44 863.994 185.44C864.687 185.44 865.307 185.567 865.854 185.82C866.401 186.073 866.867 186.427 867.254 186.88C867.641 187.32 867.934 187.847 868.134 188.46C868.347 189.073 868.454 189.747 868.454 190.48V191.24H861.034V191.72C861.034 192.16 861.101 192.573 861.234 192.96C861.381 193.333 861.581 193.66 861.834 193.94C862.101 194.22 862.421 194.44 862.794 194.6C863.181 194.76 863.614 194.84 864.094 194.84C864.747 194.84 865.314 194.687 865.794 194.38C866.287 194.073 866.667 193.633 866.934 193.06L868.074 193.88C867.741 194.587 867.221 195.16 866.514 195.6C865.807 196.027 864.967 196.24 863.994 196.24ZM863.994 186.78C863.554 186.78 863.154 186.86 862.794 187.02C862.434 187.167 862.121 187.38 861.854 187.66C861.601 187.94 861.401 188.273 861.254 188.66C861.107 189.033 861.034 189.447 861.034 189.9V190.04H866.734V189.82C866.734 188.9 866.481 188.167 865.974 187.62C865.481 187.06 864.821 186.78 863.994 186.78ZM871.091 185.68H872.691V189.98H877.851V185.68H879.451V196H877.851V191.38H872.691V196H871.091V185.68ZM882.848 185.68H884.448V190H886.508L888.508 186.84C888.655 186.6 888.795 186.407 888.928 186.26C889.062 186.1 889.195 185.98 889.328 185.9C889.462 185.82 889.602 185.767 889.748 185.74C889.895 185.7 890.062 185.68 890.248 185.68H891.188V187.08H889.948L888.328 189.64C888.222 189.813 888.128 189.953 888.048 190.06C887.968 190.167 887.888 190.26 887.808 190.34C887.728 190.407 887.642 190.467 887.548 190.52C887.455 190.56 887.342 190.6 887.208 190.64V190.72C887.488 190.76 887.728 190.853 887.928 191C888.142 191.133 888.362 191.4 888.588 191.8L890.168 194.6H891.348V196H890.188C889.842 196 889.522 195.913 889.228 195.74C888.948 195.553 888.675 195.22 888.408 194.74L886.508 191.36H884.448V196H882.848V185.68ZM897.432 196.24C896.739 196.24 896.105 196.113 895.532 195.86C894.959 195.607 894.465 195.247 894.052 194.78C893.652 194.3 893.339 193.733 893.112 193.08C892.885 192.413 892.772 191.667 892.772 190.84C892.772 190.027 892.885 189.287 893.112 188.62C893.339 187.953 893.652 187.387 894.052 186.92C894.465 186.44 894.959 186.073 895.532 185.82C896.105 185.567 896.739 185.44 897.432 185.44C898.125 185.44 898.752 185.567 899.312 185.82C899.885 186.073 900.379 186.44 900.792 186.92C901.205 187.387 901.525 187.953 901.752 188.62C901.979 189.287 902.092 190.027 902.092 190.84C902.092 191.667 901.979 192.413 901.752 193.08C901.525 193.733 901.205 194.3 900.792 194.78C900.379 195.247 899.885 195.607 899.312 195.86C898.752 196.113 898.125 196.24 897.432 196.24ZM897.432 194.82C898.299 194.82 899.005 194.553 899.552 194.02C900.099 193.487 900.372 192.673 900.372 191.58V190.1C900.372 189.007 900.099 188.193 899.552 187.66C899.005 187.127 898.299 186.86 897.432 186.86C896.565 186.86 895.859 187.127 895.312 187.66C894.765 188.193 894.492 189.007 894.492 190.1V191.58C894.492 192.673 894.765 193.487 895.312 194.02C895.859 194.553 896.565 194.82 897.432 194.82ZM904.723 185.68H909.923C910.763 185.68 911.423 185.92 911.903 186.4C912.383 186.867 912.623 187.5 912.623 188.3C912.623 189.593 911.95 190.32 910.603 190.48V190.56C911.403 190.627 911.997 190.88 912.383 191.32C912.783 191.747 912.983 192.28 912.983 192.92C912.983 193.333 912.917 193.727 912.783 194.1C912.663 194.473 912.483 194.8 912.243 195.08C912.003 195.36 911.71 195.587 911.363 195.76C911.017 195.92 910.623 196 910.183 196H904.723V185.68ZM909.703 194.68C910.183 194.68 910.563 194.553 910.843 194.3C911.123 194.047 911.263 193.687 911.263 193.22V192.76C911.263 192.293 911.123 191.933 910.843 191.68C910.563 191.427 910.183 191.3 909.703 191.3H906.323V194.68H909.703ZM909.503 190C909.943 190 910.283 189.893 910.523 189.68C910.777 189.453 910.903 189.133 910.903 188.72V188.28C910.903 187.867 910.777 187.553 910.523 187.34C910.283 187.113 909.943 187 909.503 187H906.323V190H909.503ZM923.278 196C922.678 196 922.245 195.84 921.978 195.52C921.725 195.2 921.565 194.8 921.498 194.32H921.398C921.171 194.96 920.798 195.44 920.278 195.76C919.758 196.08 919.138 196.24 918.418 196.24C917.325 196.24 916.471 195.96 915.858 195.4C915.258 194.84 914.958 194.08 914.958 193.12C914.958 192.147 915.311 191.4 916.018 190.88C916.738 190.36 917.851 190.1 919.358 190.1H921.398V189.08C921.398 188.347 921.198 187.787 920.798 187.4C920.398 187.013 919.785 186.82 918.958 186.82C918.331 186.82 917.805 186.96 917.378 187.24C916.965 187.52 916.618 187.893 916.338 188.36L915.378 187.46C915.658 186.9 916.105 186.427 916.718 186.04C917.331 185.64 918.105 185.44 919.038 185.44C920.291 185.44 921.265 185.747 921.958 186.36C922.651 186.973 922.998 187.827 922.998 188.92V194.6H924.178V196H923.278ZM918.678 194.88C919.078 194.88 919.445 194.833 919.778 194.74C920.111 194.647 920.398 194.513 920.638 194.34C920.878 194.167 921.065 193.967 921.198 193.74C921.331 193.513 921.398 193.267 921.398 193V191.3H919.278C918.358 191.3 917.685 191.433 917.258 191.7C916.845 191.967 916.638 192.353 916.638 192.86V193.28C916.638 193.787 916.818 194.18 917.178 194.46C917.551 194.74 918.051 194.88 918.678 194.88Z" fill="#FAFAFA"/>
<rect x="-1" width="718" height="46" fill="black"/>
<path d="M47.7 29V18.68H49.3V20.58H49.4C49.5867 20.0867 49.92 19.6467 50.4 19.26C50.88 18.8733 51.54 18.68 52.38 18.68H53V20.28H52.06C51.1933 20.28 50.5133 20.4467 50.02 20.78C49.54 21.1 49.3 21.5067 49.3 22V29H47.7ZM61.4038 27.32H61.3238C61.2171 27.56 61.0838 27.8 60.9238 28.04C60.7771 28.2667 60.5904 28.4733 60.3638 28.66C60.1371 28.8333 59.8638 28.9733 59.5438 29.08C59.2238 29.1867 58.8504 29.24 58.4238 29.24C57.3571 29.24 56.5104 28.9 55.8838 28.22C55.2571 27.5267 54.9438 26.5533 54.9438 25.3V18.68H56.5438V25.02C56.5438 26.8733 57.3304 27.8 58.9038 27.8C59.2238 27.8 59.5304 27.76 59.8238 27.68C60.1304 27.6 60.3971 27.48 60.6238 27.32C60.8638 27.16 61.0504 26.96 61.1838 26.72C61.3304 26.4667 61.4038 26.1667 61.4038 25.82V18.68H63.0038V29H61.4038V27.32ZM68.6909 29C68.1309 29 67.7043 28.8467 67.4109 28.54C67.1309 28.22 66.9909 27.8067 66.9909 27.3V20.08H65.2909V18.68H66.2509C66.5976 18.68 66.8309 18.6133 66.9509 18.48C67.0843 18.3333 67.1509 18.0867 67.1509 17.74V15.82H68.5909V18.68H70.8509V20.08H68.5909V27.6H70.6909V29H68.6909ZM80.9227 29C80.3227 29 79.8893 28.84 79.6227 28.52C79.3693 28.2 79.2093 27.8 79.1427 27.32H79.0427C78.816 27.96 78.4427 28.44 77.9227 28.76C77.4027 29.08 76.7827 29.24 76.0627 29.24C74.9693 29.24 74.116 28.96 73.5027 28.4C72.9027 27.84 72.6027 27.08 72.6027 26.12C72.6027 25.1467 72.956 24.4 73.6627 23.88C74.3827 23.36 75.496 23.1 77.0027 23.1H79.0427V22.08C79.0427 21.3467 78.8427 20.7867 78.4427 20.4C78.0427 20.0133 77.4293 19.82 76.6027 19.82C75.976 19.82 75.4493 19.96 75.0227 20.24C74.6093 20.52 74.2627 20.8933 73.9827 21.36L73.0227 20.46C73.3027 19.9 73.7493 19.4267 74.3627 19.04C74.976 18.64 75.7493 18.44 76.6827 18.44C77.936 18.44 78.9093 18.7467 79.6027 19.36C80.296 19.9733 80.6427 20.8267 80.6427 21.92V27.6H81.8227V29H80.9227ZM76.3227 27.88C76.7227 27.88 77.0893 27.8333 77.4227 27.74C77.756 27.6467 78.0427 27.5133 78.2827 27.34C78.5227 27.1667 78.7093 26.9667 78.8427 26.74C78.976 26.5133 79.0427 26.2667 79.0427 26V24.3H76.9227C76.0027 24.3 75.3293 24.4333 74.9027 24.7C74.4893 24.9667 74.2827 25.3533 74.2827 25.86V26.28C74.2827 26.7867 74.4627 27.18 74.8227 27.46C75.196 27.74 75.696 27.88 76.3227 27.88ZM87.2063 29.24C86.2463 29.24 85.4396 29.06 84.7863 28.7C84.1463 28.3267 83.5929 27.8333 83.1263 27.22L84.2663 26.3C84.6663 26.8067 85.1129 27.2 85.6063 27.48C86.0996 27.7467 86.6729 27.88 87.3263 27.88C88.0063 27.88 88.5329 27.7333 88.9063 27.44C89.2929 27.1467 89.4863 26.7333 89.4863 26.2C89.4863 25.8 89.3529 25.46 89.0863 25.18C88.8329 24.8867 88.3663 24.6867 87.6862 24.58L86.8663 24.46C86.3863 24.3933 85.9463 24.2933 85.5463 24.16C85.1463 24.0133 84.7929 23.8267 84.4863 23.6C84.1929 23.36 83.9596 23.0667 83.7863 22.72C83.6263 22.3733 83.5463 21.96 83.5463 21.48C83.5463 20.9733 83.6396 20.5333 83.8263 20.16C84.0129 19.7733 84.2663 19.4533 84.5863 19.2C84.9196 18.9467 85.3129 18.76 85.7663 18.64C86.2196 18.5067 86.7063 18.44 87.2263 18.44C88.0663 18.44 88.7663 18.5867 89.3263 18.88C89.8996 19.1733 90.3996 19.58 90.8263 20.1L89.7663 21.06C89.5396 20.74 89.2063 20.4533 88.7663 20.2C88.3263 19.9333 87.7729 19.8 87.1063 19.8C86.4396 19.8 85.9329 19.9467 85.5863 20.24C85.2529 20.52 85.0863 20.9067 85.0863 21.4C85.0863 21.9067 85.2529 22.2733 85.5863 22.5C85.9329 22.7267 86.4263 22.8933 87.0663 23L87.8663 23.12C89.0129 23.2933 89.8263 23.6267 90.3063 24.12C90.7863 24.6 91.0263 25.2333 91.0263 26.02C91.0263 27.02 90.6863 27.8067 90.0063 28.38C89.3263 28.9533 88.3929 29.24 87.2063 29.24Z" fill="white"/>
<path d="M182.827 181.543C178.165 170.277 178.777 146.849 189.115 135.839C177.304 145.251 151.734 143.845 140.721 137.237" stroke="black" stroke-width="3.71393" stroke-linecap="square"/>
<path d="M46 102C51.4305 113.766 69.3509 132.592 97.5893 113.766" stroke="black" stroke-width="3.71393" stroke-linecap="square"/>
<path d="M97.5979 113.77C72.8592 130.363 40.2902 163.004 65.0152 183.46C80.366 196.161 135.611 185.995 182.675 141.827" stroke="black" stroke-width="3.71393" stroke-linecap="square"/>
</svg>
